<ttFont>
          <CharString index="0">
            -90 callsubr
            -72 callgsubr
            vhcurveto
            -103 callgsubr
            return
          </CharString>
          <CharString index="1">
            17 11 14 23 18 -10 19 -18 hvcurveto
            return
          </CharString>
          <CharString index="2">
            -90 callgsubr
            -100 callsubr
          </CharString>
          <CharString index="3">
            rmoveto
            -69 callgsubr
            -52 callsubr
            -63 callgsubr
            23 -28 -26 22 -49 hhcurveto
            -62 -56 -43 -57 -81 callgsubr
            hvcurveto
            endchar
          </CharString>
          <CharString index="4">
            -89 callsubr
            19 10 18 vhcurveto
            return
          </CharString>
          <CharString index="5">
            rmoveto
            -92 callsubr
            232 -156 rmoveto
            114 -95 112 -124 -78 callsubr
            vhcurveto
            return
          </CharString>
          <CharString index="6">
            74 vstem
            -104 callgsubr
            return
          </CharString>
          <CharString index="7">
            -88 callsubr
            -97 callgsubr
          </CharString>
          <CharString index="8">
            vlineto
            -103 callsubr
            return
          </CharString>
          <CharString index="9">
            368 440 -102 callsubr
            return
          </CharString>
          <CharString index="10">
            73 vstem
            346 74 rmoveto
            -29 callgsubr
            hvcurveto
            449 -73 callgsubr
            -1 vhcurveto
            -458 vlineto
            -127 158 -87 128 123 155 87 127 vhcurveto
            458 -74 callgsubr
            -449 vlineto
            -29 callsubr
            vhcurveto
            return
          </CharString>
          <CharString index="11">
            613 74 rmoveto
            -466 281 376 -105 callgsubr
            -376 196 -78 callgsubr
            -599 vlineto
            -29 1 -22 25 vhcurveto
            514 -105 callgsubr
            return
          </CharString>
          <CharString index="12">
            610 473 rmoveto
            -99 callgsubr
            -237 vlineto
            -104 -42 -126 -69 -85 hhcurveto
            -59 -96 45 105 hvcurveto
            259 -58 callsubr
            -166 -1 -54 -48 vvcurveto
            -127 98 -87 123 98 98 47 72 66 vhcurveto
            -82 vlineto
            return
          </CharString>
          <CharString index="13">
            rmoveto
            -96 callgsubr
          </CharString>
          <CharString index="14">
            rmoveto
            101 62 75 83 98 -87 62 -74 -81 -94 -52 -108 -86 78 -72 95 hvcurveto
            -1 244 rmoveto
            54 36 -49 -37 -40 -42 -44 -48 -50 -48 44 39 35 34 52 64 hvcurveto
            return
          </CharString>
          <CharString index="15">
            29 113 -23 -87 -72 -164 -194 -111 -49 -76 32 84 139 129 121 129 hvcurveto
            return
          </CharString>
          <CharString index="16">
            33 15 39 9 48 vvcurveto
            25 -27 34 -31 -63 -50 -125 -51 vhcurveto
            endchar
          </CharString>
          <CharString index="17">
            28 vlineto
            32 -55 callsubr
            return
          </CharString>
          <CharString index="18">
            -68 callgsubr
            18 return
          </CharString>
          <CharString index="19">
            -19 25 -15 18 10 12 7 6 6 vhcurveto
            95 85 96 -85 rlineto
            return
          </CharString>
          <CharString index="20">
            40 39 -6 -36 41 hvcurveto
            -5 5 6 -2 6 hhcurveto
            19 21 22 21 7 -2 6 -6 5 hvcurveto
            return
          </CharString>
          <CharString index="21">
            5 -3 2 -6 -8 -23 -17 -39 -13 vvcurveto
            -12 10 0 8 22 73 89 62 vhcurveto
            return
          </CharString>
          <CharString index="22">
            -65 callgsubr
            -17 10 20 callgsubr
            22 10 18 vhcurveto
            return
          </CharString>
          <CharString index="23">
            rmoveto
            152 -158 5 -118 -55 -89 17 49 58 102 21 63 89 72 -19 -32 30 vhcurveto
            -5 3 11 -11 6 hhcurveto
            16 19 32 -19 callgsubr
            67 -52 -122 21 -65 hhcurveto
            -106 -139 -46 -111 -67 74 -50 71 -13 hvcurveto
            86 -17 189 30 -96 vvcurveto
            -72 -77 -7 -53 -29 -151 3 77 -71 vhcurveto
            1 0 1 -7 vhcurveto
            -21 -5 -17 -25 -17 vvcurveto
            2 callsubr
            vhcurveto
            -86 89 145 -4 70 hhcurveto
            81 108 39 108 hvcurveto
            endchar
          </CharString>
          <CharString index="24">
            -87 callsubr
            endchar
          </CharString>
          <CharString index="25">
            -117 -81 78 96 -14 hvcurveto
            -16 50 78 -14 70 -61 callsubr
            return
          </CharString>
          <CharString index="26">
            -16 vvcurveto
            -15 10 -16 23 -15 vhcurveto
            318 -255 -56 callgsubr
            -285 235 285 226 -57 callsubr
            return
          </CharString>
          <CharString index="27">
            79 63 30 58 51 hvcurveto
            5 5 2 5 6 vvcurveto
            18 -22 26 -21 -6 -8 -6 -5 -5 vhcurveto
            return
          </CharString>
          <CharString index="28">
            rmoveto
            15 15 19 16 16 hvcurveto
            117 118 rlineto
            4 4 0 3 4 vvcurveto
            19 -27 16 -15 -11 -11 -7 -7 -7 vhcurveto
            -96 -85 -95 85 rlineto
            return
          </CharString>
          <CharString index="29">
            -173 -170 -145 -183 -96 85 -94 97 return
          </CharString>
          <CharString index="30">
            18 -29 20 -17 -6 -6 0 -8 -4 vhcurveto
            -38 -40 -77 -16 -53 hhcurveto
            return
          </CharString>
          <CharString index="31">
            89 -73 73 hintmask 10111110
            -98 callsubr
            hintmask 01111101
            -85 callsubr
            return
          </CharString>
          <CharString index="32">
            80 69 rlineto
            -239 -50 vlineto
            -10 -6 -25 -11 -14 6 -24 10 hvcurveto
            174 hlineto
            10 7 23 14 11 -6 26 -11 hvcurveto
            -50 314 hlineto
            20 -21 13 -20 -9 -9 -3 -6 -6 vhcurveto
            return
          </CharString>
          <CharString index="33">
            -56 -113 -54 callsubr
            147 -46 92 hhcurveto
            124 159 18 callsubr
            479 -92 callgsubr
            return
          </CharString>
          <CharString index="34">
            6 -6 -12 7 -10 hhcurveto
            -18 -25 -15 -19 -4 1 -3 3 -4 hvcurveto
            115 -118 rlineto
            -18 18 14 -17 15 hhcurveto
            return
          </CharString>
          <CharString index="35">
            74 hintmask 10111110
            -95 callsubr
            hintmask 01111110
            -52 callgsubr
            return
          </CharString>
          <CharString index="36">
            -23 10 -15 17 return
          </CharString>
          <CharString index="37">
            rmoveto
            -468 hlineto
            -37 callgsubr
            375 hlineto
            -421 -378 rlineto
            -3 -5 -1 -4 -5 vvcurveto
            -10 6 -11 13 -8 vhcurveto
            -4 7 7 -1 8 hhcurveto
            487 -11 callgsubr
            -392 hlineto
            404 355 rlineto
            10 13 6 15 12 vvcurveto
            18 -12 13 -26 vhcurveto
            endchar
          </CharString>
          <CharString index="38">
            -18 18 -9 18 23 15 10 17 vhcurveto
            return
          </CharString>
          <CharString index="39">
            -144 228 74 hstem
            382 302 rmoveto
            -295 -91 callgsubr
            295 -105 callgsubr
            endchar
          </CharString>
          <CharString index="40">
            -50 callgsubr
            -18 return
          </CharString>
          <CharString index="41">
            rmoveto
            202 124 160 166 196 -174 134 -148 -162 -188 -114 -216 -172 156 -154 190 hvcurveto
            2 584 rmoveto
            162 89 -148 -111 -120 -107 -132 -144 -150 -125 102 147 105 83 157 192 hvcurveto
            return
          </CharString>
          <CharString index="42">
            17 -14 11 -23 -18 return
          </CharString>
          <CharString index="43">
            -192 383 74 170 74 hstem
            43 18 callgsubr
            vstem
            216 383 -93 callsubr
            endchar
          </CharString>
          <CharString index="44">
            -148 -209 vhcurveto
            74 -1 rmoveto
            144 return
          </CharString>
          <CharString index="45">
            327 -15 rmoveto
            167 104 125 139 return
          </CharString>
          <CharString index="46">
            hhcurveto
            164 78 78 83 78 -69 69 -137 return
          </CharString>
          <CharString index="47">
            -361 -80 12 callsubr
            58 -75 callgsubr
            endchar
          </CharString>
          <CharString index="48">
            vlineto
            hintmask 1001011101000000
            -40 callsubr
            hintmask 0101011110000000
            -47 callgsubr
            hintmask 0010111110000000
            73 -63 24 -27 vhcurveto
            return
          </CharString>
          <CharString index="49">
            vlineto
            -5 callsubr
            return
          </CharString>
          <CharString index="50">
            rlineto
            9 5 6 8 11 vvcurveto
            19 -16 26 -21 -3 -4 -1 -1 -3 vhcurveto
            return
          </CharString>
          <CharString index="51">
            -11 -14 -5 -12 -11 vvcurveto
            -20 20 -15 19 9 return
          </CharString>
          <CharString index="52">
            -32 16 -33 return
          </CharString>
          <CharString index="53">
            19 48 -49 callsubr
            hvcurveto
            -94 1 return
          </CharString>
          <CharString index="54">
            1 -3 -4 1 -3 hhcurveto
            -21 -16 -26 -19 -11 6 -8 9 -5 hvcurveto
            return
          </CharString>
          <CharString index="55">
            16 -2 27 -23 -14 -14 -8 -14 return
          </CharString>
          <CharString index="56">
            -19 callsubr
            -117 -101 96 92 80 68 114 149 -83 callsubr
          </CharString>
          <CharString index="57">
            38 -8 72 -49 -21 446 70 return
          </CharString>
          <CharString index="58">
            20 -20 12 -20 -18 -18 -10 -23 return
          </CharString>
          <CharString index="59">
            -5 3 -2 6 8 23 17 39 13 vvcurveto
            12 -10 0 -8 -22 -73 -89 -62 vhcurveto
            return
          </CharString>
          <CharString index="60">
            21 -21 700 -20 return
          </CharString>
          <CharString index="61">
            -20 18 -12 20 18 18 10 23 vhcurveto
            111 -2 -76 52 -86 hhcurveto
            -110 return
          </CharString>
          <CharString index="62">
            31 58 75 22 54 hhcurveto
            146 54 -72 -72 -99 -96 -43 -126 hvcurveto
            return
          </CharString>
          <CharString index="63">
            -21 callgsubr
            8 3 7 6 vhcurveto
            return
          </CharString>
          <CharString index="64">
            0 74 281 -14 callgsubr
            return
          </CharString>
          <CharString index="65">
            526 451 rmoveto
            36 -38 -51 23 -56 -17 callgsubr
            return
          </CharString>
          <CharString index="66">
            16 callsubr
            -20 callgsubr
            -79 callgsubr
            return
          </CharString>
          <CharString index="67">
            35 -2 57 -3 -54 vvcurveto
            -22 -24 -12 -24 -23 -20 11 26 -2 vhcurveto
            return
          </CharString>
          <CharString index="68">
            -55 callgsubr
            -546 -747 rlineto
            return
          </CharString>
          <CharString index="69">
            4 3 0 6 4 vvcurveto
            22 -28 18 -19 -9 -5 -6 -6 -7 vhcurveto
            return
          </CharString>
          <CharString index="70">
            25 -15 callsubr
            399 -20 return
          </CharString>
          <CharString index="71">
            133 117 133 return
          </CharString>
          <CharString index="72">
            60 26 rmoveto
            -69 callsubr
            241 vlineto
            return
          </CharString>
          <CharString index="73">
            rmoveto
            -505 -91 callgsubr
            505 -105 callgsubr
            endchar
          </CharString>
          <CharString index="74">
            rmoveto
            -28 218 hlineto
            22 -24 14 -22 -11 -11 -3 -9 -7 vhcurveto
            -205 -255 rlineto
            -5 -6 -2 -9 -9 vvcurveto
            return
          </CharString>
          <CharString index="75">
            -42 callgsubr
            65 17 58 62 139 6 callgsubr
          </CharString>
          <CharString index="76">
            -60 32 -16 33 41 29 23 35 30 -10 20 -22 15 vhcurveto
            return
          </CharString>
          <CharString index="77">
            56 -10 73 -42 -28 callgsubr
            return
          </CharString>
          <CharString index="78">
            -103 -138 -46 -75 return
          </CharString>
          <CharString index="79">
            hlineto
            57 173 rlineto
            2 6 1 6 5 vvcurveto
            18 -20 13 -21 -11 -16 -5 -13 -3 vhcurveto
            -67 -203 rlineto
            return
          </CharString>
          <CharString index="80">
            24 8 26 37 38 vvcurveto
            65 -62 45 -59 -43 -71 -37 -57 -19 12 -9 20 17 15 6 12 vhcurveto
            endchar
          </CharString>
          <CharString index="81">
            -19 74 -35 -21 226 74 -18 74 170 74 hstemhm
            37 74 188 74 196 18 callgsubr
            return
          </CharString>
          <CharString index="82">
            -23 -14 -11 -17 return
          </CharString>
          <CharString index="83">
            -18 -11 74 144 74 160 74 return
          </CharString>
          <CharString index="84">
            116 13 130 83 116 vvcurveto
            return
          </CharString>
          <CharString index="85">
            143 -138 67 -104 -39 callgsubr
            return
          </CharString>
          <CharString index="86">
            119 -69 110 -195 -74 -78 -24 -20 -47 return
          </CharString>
          <CharString index="87">
            212 -74 74 -74 212 return
          </CharString>
          <CharString index="88">
            -58 -51 -55 -5 -37 hhcurveto
            return
          </CharString>
          <CharString index="89">
            22 -15 74 382 74 return
          </CharString>
          <CharString index="90">
            13 -8 6 -11 -16 -21 -14 -25 -57 71 -27 43 91 52 67 64 43 -23 41 -49 21 return
          </CharString>
          <CharString index="91">
            18 9 18 18 23 -10 15 -17 hvcurveto
            -160 return
          </CharString>
          <CharString index="92">
            21 -21 227 74 return
          </CharString>
          <CharString index="93">
            147 28 rmoveto
            return
          </CharString>
          <CharString index="94">
            583 -23 callgsubr
            -194 -177 -147 -209 return
          </CharString>
          <CharString index="95">
            498 453 -33 callgsubr
            -135 -158 -86 -181 return
          </CharString>
          <CharString index="96">
            rmoveto
            -58 -66 0 13 -41 hvcurveto
            220 vlineto
            return
          </CharString>
          <CharString index="97">
            -47 callsubr
            hstem
            return
          </CharString>
          <CharString index="98">
            rlineto
            5 5 3 6 7 vvcurveto
            15 -19 26 -24 -6 -6 -2 -5 -5 vhcurveto
            return
          </CharString>
          <CharString index="99">
            -394 -47 callsubr
            return
          </CharString>
          <CharString index="100">
            0 callsubr
            -22 -16 -30 -17 2 callsubr
            hvcurveto
            return
          </CharString>
          <CharString index="101">
            -1 callgsubr
            -20 -20 -4 0 -6 4 -3 hvcurveto
            return
          </CharString>
          <CharString index="102">
            -65 callsubr
            -19 13 callgsubr
            return
          </CharString>
          <CharString index="103">
            203 hstem
            return
          </CharString>
          <CharString index="104">
            -50 callsubr
            37 203 hstemhm
            38 72 return
          </CharString>
          <CharString index="105">
            -30 callsubr
            67 203 hstemhm
            54 74 return
          </CharString>
          <CharString index="106">
            4 3 vvcurveto
            21 -26 16 -19 -11 return
          </CharString>
          <CharString index="107">
            1 -1 -2 1 -4 hhcurveto
            return
          </CharString>
          <CharString index="108">
            -3 callgsubr
            60 133 return
          </CharString>
          <CharString index="109">
            -6 1 -7 6 -6 return
          </CharString>
          <CharString index="110">
            vstem
            -14 callsubr
            return
          </CharString>
          <CharString index="111">
            53 302 53 return
          </CharString>
          <CharString index="112">
            43 -229 -21 249 75 361 73 -8 -20 hstemhm
            return
          </CharString>
          <CharString index="113">
            49 25 -30 -30 -31 -26 -32 -53 -27 -23 11 24 return
          </CharString>
          <CharString index="114">
            46 -8 72 -43 -21 440 70 240 -20 hstemhm
            return
          </CharString>
          <CharString index="115">
            2 callgsubr
            67 -4 callsubr
            68 73 return
          </CharString>
          <CharString index="116">
            10 -18 30 callgsubr
            return
          </CharString>
          <CharString index="117">
            -10 18 23 14 11 17 vhcurveto
            return
          </CharString>
          <CharString index="118">
            -52 callgsubr
            endchar
          </CharString>
          <CharString index="119">
            -21 227 -20 hstemhm
            return
          </CharString>
          <CharString index="120">
            -158 76 321 76 321 76 hstemhm
            return
          </CharString>
          <CharString index="121">
            59 20 -21 22 -21 438 73 -11 -20 return
          </CharString>
          <CharString index="122">
            56 1 164 -72 72 return
          </CharString>
          <CharString index="123">
            74 3 callsubr
            return
          </CharString>
          <CharString index="124">
            -20 21 -20 hstemhm
            return
          </CharString>
          <CharString index="125">
            84 166 hvcurveto
            return
          </CharString>
          <CharString index="126">
            -20 hstemhm
            73 74 return
          </CharString>
          <CharString index="127">
            -19 -21 31 169 -74 74 141 return
          </CharString>
          <CharString index="128">
            -20 26 callgsubr
            return
          </CharString>
          <CharString index="129">
            547 -4 callsubr
            40 171 vstem
            return
          </CharString>
          <CharString index="130">
            -9 23 -7 20 16 15 4 12 vhcurveto
            return
          </CharString>
          <CharString index="131">
            rlineto
            -23 11 16 -12 13 hhcurveto
            endchar
          </CharString>
          <CharString index="132">
            159 1 return
          </CharString>
          <CharString index="133">
            56 140 -21 369 -20 hstem
            return
          </CharString>
          <CharString index="134">
            48 78 19 41 62 102 -45 -84 return
          </CharString>
          <CharString index="135">
            23 -18 10 -18 -20 -20 -12 -20 return
          </CharString>
          <CharString index="136">
            182 112 -139 -142 return
          </CharString>
          <CharString index="137">
            196 -74 74 hstemhm
            return
          </CharString>
          <CharString index="138">
            194 -74 74 return
          </CharString>
          <CharString index="139">
            126 hstemhm
            return
          </CharString>
        <CharString name=".notdef">
          -373 endchar
        </CharString>
        <CharString name="A">
          -37 callsubr
          hstem
          -107 callgsubr
          endchar
        </CharString>
        <CharString name="AE">
          121 0 74 153 74 54 -14 callgsubr
          hstem
          339 74 vstem
          679 74 rmoveto
          -266 281 176 -105 callgsubr
          -176 196 266 -105 callgsubr
          -314 hlineto
          -7 -5 -2 -3 -3 hvcurveto
          -7 -5 -7 -8 -9 -16 -174 -364 rcurveline
          -94 -91 callgsubr
          59 hlineto
          -86 -86 callgsubr
          103 212 rlineto
          137 -176 hlineto
          -29 1 -22 25 vhcurveto
          314 -105 callgsubr
          -340 434 rmoveto
          -207 -101 vlineto
          endchar
        </CharString>
        <CharString name="Aacute">
          -37 callsubr
          67 -4 callsubr
          282 171 vstem
          -107 callgsubr
          68 473 -94 callgsubr
        </CharString>
        <CharString name="Acircumflex">
          -37 callsubr
          71 19 callgsubr
          hstem
          -107 callgsubr
          106 649 -105 callsubr
        </CharString>
        <CharString name="Adieresis">
          -37 callsubr
          90 -3 callgsubr
          129 -36 callsubr
          vstem
          -107 callgsubr
          48 519 rmoveto
          28 vlineto
          32 -32 16 -33 -41 -27 -18 -30 vhcurveto
          -106 callgsubr
        </CharString>
        <CharString name="Agrave">
          -37 callsubr
          67 -4 callsubr
          177 171 vstem
          -107 callgsubr
          134 473 -94 callsubr
        </CharString>
        <CharString name="Aring">
          26 -15 callsubr
          401 -20 101 63 hstem
          205 64 89 65 vstem
          506 301 rmoveto
          -135 352 rlineto
          32 18 20 34 37 vvcurveto
          28 callgsubr
          -39 26 -36 37 -17 vhcurveto
          -133 -349 rlineto
          -69 -91 callgsubr
          41 hlineto
          -68 -86 callgsubr
          81 212 rlineto
          269 hlineto
          81 -212 rlineto
          -9 5 8 -6 11 hhcurveto
          19 26 16 21 3 -1 4 -1 3 hvcurveto
          -69 180 rlineto
          36 -105 callgsubr
          -250 279 rmoveto
          106 -279 rlineto
          -212 hlineto
          103 482 rmoveto
          -9 callgsubr
          endchar
        </CharString>
        <CharString name="Atilde">
          -37 callsubr
          75 17 callgsubr
          116 4 callsubr
          vstem
          -107 callgsubr
          125 470 -104 callsubr
        </CharString>
        <CharString name="B">
          29 -17 74 -36 -21 343 73 214 71 -1 19 callsubr
          288 74 25 74 hintmask 01101111
          147 673 rmoveto
          -99 callgsubr
          -645 vlineto
          -68 callgsubr
          14 15 6 12 6 vhcurveto
          hintmask 10110111
          -20 47 78 -15 74 hhcurveto
          195 69 110 119 77 -61 93 -135 21 hvcurveto
          73 24 24 74 49 vvcurveto
          99 -88 52 -92 -66 -65 -24 -57 -51 vhcurveto
          165 -277 rmoveto
          126 96 -43 -99 -72 -54 -72 -146 -54 -75 3 31 -58 hvcurveto
          249 vlineto
          41 66 3 58 hhcurveto
          123 202 rmoveto
          -63 -66 -66 -133 -28 -37 2 3 -24 vhcurveto
          98 vlineto
          81 40 73 30 69 hhcurveto
          60 46 -25 -60 hvcurveto
          endchar
        </CharString>
        <CharString name="C">
          26 -9 15 callgsubr
          hintmask 01110000
          -13 callsubr
          -188 136 -176 239 -80 callsubr
          hintmask 10110000
          -53 callgsubr
        </CharString>
        <CharString name="Ccedilla">
          26 0 callgsubr
          27 15 callgsubr
          102 15 callsubr
          hintmask 1001011110000000
          -13 callsubr
          -147 83 -140 151 -54 hvcurveto
          -92 -59 callsubr
          32 vlineto
          -3 21 22 -2 24 hhcurveto
          -80 callsubr
          hintmask 1001011110000000
          -53 callgsubr
        </CharString>
        <CharString name="D">
          88 -9 74 -44 -21 637 74 -11 19 callsubr
          435 75 hintmask 10101100
          147 -26 callgsubr
          -44 -47 -15 -31 -48 hvcurveto
          8 vlineto
          hintmask 01011100
          -99 callgsubr
          -79 callgsubr
          hintmask 10101100
          141 609 rmoveto
          29 callsubr
          7 callgsubr
          hvcurveto
          464 vlineto
          31 44 47 18 50 hhcurveto
          endchar
        </CharString>
        <CharString name="E">
          58 -43 callsubr
          hstem
          73 74 vstem
          -96 callsubr
          endchar
        </CharString>
        <CharString name="Eacute">
          -4 callgsubr
          175 171 vstem
          -96 callsubr
          -291 700 -94 callgsubr
        </CharString>
        <CharString name="Ecircumflex">
          58 -43 callsubr
          0 53 -1 -20 219 19 callsubr
          hintmask 11101110
          -96 callsubr
          -257 876 -90 callgsubr
          hintmask 11010110
          -88 callsubr
          hintmask 11101110
          -97 callgsubr
        </CharString>
        <CharString name="Edieresis">
          58 -43 callsubr
          71 -3 callgsubr
          73 74 19 133 117 135 vstem
          -96 callsubr
          -314 746 rmoveto
          28 vlineto
          32 -32 16 -33 -41 -27 -18 -30 vhcurveto
          -106 callgsubr
        </CharString>
        <CharString name="Egrave">
          -4 callgsubr
          56 171 vstem
          -96 callsubr
          -239 700 -94 callsubr
        </CharString>
        <CharString name="Eth">
          125 -9 74 -44 -21 298 74 265 74 -11 -20 hstemhm
          17 167 -74 74 435 75 hintmask 10110101
          184 -26 callgsubr
          -45 -46 -11 -31 -48 hvcurveto
          4 vlineto
          hintmask 10101011
          -99 callgsubr
          -301 -66 vlineto
          hintmask 10110101
          -93 callgsubr
          hintmask 01110101
          66 -270 hlineto
          -103 callsubr
          155 344 rmoveto
          -155 216 hlineto
          31 48 46 18 47 hhcurveto
          29 callsubr
          hvcurveto
          hintmask 10110101
          7 callgsubr
          vhcurveto
          174 155 vlineto
          -106 callsubr
          endchar
        </CharString>
        <CharString name="Euro">
          80 -9 74 -74 148 89 74 84 74 177 74 hstemhm
          43 110 hintmask 01111100
          616 -23 callgsubr
          -160 -148 -100 -151 -47 hvcurveto
          -24 -91 callgsubr
          9 hlineto
          -1 -10 0 -11 -10 vvcurveto
          -18 1 -18 2 -17 vhcurveto
          -11 -91 callgsubr
          30 hlineto
          -133 47 122 -104 184 hhcurveto
          -80 callsubr
          hintmask 10111100
          -19 callsubr
          -132 -91 71 92 -43 hvcurveto
          343 -105 callgsubr
          -367 hlineto
          -4 18 -1 18 18 vvcurveto
          10 1 10 1 10 vhcurveto
          370 -105 callgsubr
          -352 hlineto
          99 40 97 78 137 hhcurveto
          -83 callsubr
        </CharString>
        <CharString name="F">
          39 21 -21 355 -14 callgsubr
          hstem
          73 74 vstem
          147 625 rmoveto
          -78 callgsubr
          -622 vlineto
          -17 13 20 callgsubr
          20 10 18 vhcurveto
          327 376 vlineto
          -106 callsubr
          -376 hlineto
          endchar
        </CharString>
        <CharString name="G">
          58 -9 74 232 74 266 74 hstem
          46 75 439 70 vstem
          594 -23 callgsubr
          -194 -187 -147 -209 -188 100 -176 239 155 90 136 195 29 -2 20 -24 hvcurveto
          -245 -91 callgsubr
          201 hlineto
          -127 -3 -59 -105 -128 hhcurveto
          -190 -59 148 143 142 122 -59 callgsubr
        </CharString>
        <CharString name="H">
          104 21 -21 355 74 271 -20 hstem
          73 74 424 16 callsubr
          327 424 -327 -51 callgsubr
          -244 -424 244 -92 callgsubr
          -79 callgsubr
          endchar
        </CharString>
        <CharString name="I">
          -8 callsubr
          hstem
          73 -41 callsubr
          endchar
        </CharString>
        <CharString name="Iacute">
          -8 callsubr
          67 203 hstemhm
          73 74 -74 179 hintmask 11110000
          -14 callsubr
          -20 callgsubr
          -79 callgsubr
          -66 746 -84 callgsubr
          hintmask 11101000
          -91 callsubr
        </CharString>
        <CharString name="Icircumflex">
          -8 callsubr
          71 19 callgsubr
          hstem
          73 -41 callsubr
          -37 922 -105 callsubr
        </CharString>
        <CharString name="Idieresis">
          -8 callsubr
          90 -3 callgsubr
          -81 133 21 74 22 133 3 callsubr
          -20 callgsubr
          -79 callgsubr
          -95 792 rmoveto
          28 vlineto
          32 -32 16 -33 -41 -27 -18 -30 vhcurveto
          -106 callgsubr
        </CharString>
        <CharString name="Igrave">
          -8 callsubr
          67 -4 callsubr
          -24 171 -74 -41 callsubr
          746 vmoveto
          -96 callgsubr
        </CharString>
        <CharString name="J">
          -111 -3 4 callgsubr
          530 -20 hstemhm
          13 76 273 74 hintmask 10111000
          362 240 rmoveto
          -118 -92 -51 -62 -41 -78 19 48 vhcurveto
          hintmask 01111000
          -7 callgsubr
          104 129 18 callsubr
          426 -92 callgsubr
          endchar
        </CharString>
        <CharString name="K">
          13 -10 callsubr
          73 16 callsubr
          212 vlineto
          99 96 321 -324 rlineto
          -7 7 6 -5 9 hhcurveto
          20 26 18 19 5 0 5 -4 4 hvcurveto
          -330 338 261 252 rlineto
          5 5 2 6 6 vvcurveto
          19 -21 23 -21 -7 -7 -3 -6 -6 vhcurveto
          -360 -349 rlineto
          331 -92 callgsubr
          -79 callgsubr
          endchar
        </CharString>
        <CharString name="L">
          -102 0 73 627 -20 hstem
          73 74 vstem
          475 73 rmoveto
          -328 600 hlineto
          -99 callgsubr
          -645 vlineto
          -27 33 -1 25 vhcurveto
          344 hlineto
          17 11 13 23 18 -10 19 -18 hvcurveto
          endchar
        </CharString>
        <CharString name="M">
          160 21 -21 703 -20 hstem
          73 74 480 16 callsubr
          537 vlineto
          182 -264 rlineto
          -24 17 20 -11 20 hhcurveto
          21 17 4 31 21 hvcurveto
          182 264 rlineto
          -537 -99 callsubr
          645 vlineto
          16 -29 14 -23 -12 -10 -7 -5 -3 vhcurveto
          -237 -349 -236 349 rlineto
          8 -5 -10 4 -13 hhcurveto
          -23 -27 -12 -18 hvcurveto
          -79 callgsubr
          endchar
        </CharString>
        <CharString name="N">
          104 -10 callsubr
          73 74 424 -67 callgsubr
          endchar
        </CharString>
        <CharString name="Ntilde">
          104 -47 callsubr
          75 17 callgsubr
          73 74 8 4 callsubr
          8 -67 callgsubr
          231 743 -104 callsubr
        </CharString>
        <CharString name="O">
          -18 callgsubr
          hstem
          48 74 422 -101 callsubr
          endchar
        </CharString>
        <CharString name="OE">
          97 -43 callsubr
          hstem
          46 74 216 74 vstem
          656 74 rmoveto
          -246 281 156 -105 callgsubr
          -156 196 246 -105 callgsubr
          -294 hlineto
          -150 -166 -142 -209 -208 161 -118 148 -21 hvcurveto
          7 -1 rlineto
          294 -105 callgsubr
          -536 273 rmoveto
          132 106 124 110 19 vhcurveto
          -546 vlineto
          -109 18 -107 113 140 vvcurveto
          endchar
        </CharString>
        <CharString name="Oacute">
          -18 callgsubr
          42 -4 callsubr
          48 74 183 171 68 -101 callsubr
          183 427 -94 callgsubr
        </CharString>
        <CharString name="Ocircumflex">
          -18 callgsubr
          0 47 -1 19 callgsubr
          hstemhm
          48 74 422 74 hintmask 11011110
          -104 callgsubr
          210 603 -90 callgsubr
          hintmask 10101110
          -88 callsubr
          hintmask 11011110
          -97 callgsubr
        </CharString>
        <CharString name="Odieresis">
          -18 callgsubr
          65 -3 callgsubr
          48 74 20 -36 callsubr
          19 -101 callsubr
          153 473 rmoveto
          28 vlineto
          32 -32 16 -33 -41 -27 -18 -30 vhcurveto
          -106 callgsubr
        </CharString>
        <CharString name="Ograve">
          -18 callgsubr
          42 -4 callsubr
          48 74 69 171 182 -101 callsubr
          240 427 -94 callsubr
        </CharString>
        <CharString name="Oslash">
          69 -5 74 -48 -21 631 74 -1 -20 hstemhm
          56 74 422 74 hintmask 10011100
          147 87 rmoveto
          -59 53 70 -33 75 hhcurveto
          159 32 callgsubr
          138 217 vvcurveto
          75 -19 70 -33 59 vhcurveto
          81 88 rlineto
          -38 callgsubr
          -72 -78 rlineto
          hintmask 01101100
          54 -49 -64 34 -72 hhcurveto
          -153 -136 -148 -209 -76 17 -67 30 -55 hvcurveto
          -72 -78 -44 callsubr
          hintmask 10101100
          268 59 rmoveto
          -56 -52 28 46 -38 hvcurveto
          321 352 rlineto
          20 -44 12 -51 -51 vvcurveto
          -152 -90 -128 -117 vhcurveto
          -215 278 rmoveto
          144 96 140 119 52 46 -28 -42 36 vhcurveto
          -321 -351 rlineto
          -18 41 -10 46 50 vvcurveto
          endchar
        </CharString>
        <CharString name="Otilde">
          -18 callgsubr
          50 17 callgsubr
          48 74 7 4 callsubr
          7 -101 callsubr
          230 424 -104 callsubr
        </CharString>
        <CharString name="P">
          19 -12 callgsubr
          312 341 -62 callgsubr
          -24 callgsubr
          endchar
        </CharString>
        <CharString name="Q">
          62 -160 74 -74 186 -30 73 562 74 hstemhm
          47 74 422 74 -56 56 -56 74 hintmask 10111001
          47 348 rmoveto
          -203 125 -138 145 -11 vhcurveto
          -95 16 49 -61 89 hhcurveto
          86 76 42 111 2 hvcurveto
          hintmask 01011010
          23 -18 10 -18 -20 -18 -12 -20 vhcurveto
          hintmask 10111100
          -75 -52 -5 -38 -37 -34 28 59 -11 vhcurveto
          132 28 96 130 192 -100 callgsubr
          endchar
        </CharString>
        <CharString name="R">
          63 -12 callgsubr
          147 268 rmoveto
          -1 43 40 -5 38 hhcurveto
          43 40 2 5 36 hvcurveto
          166 -244 rlineto
          -17 12 20 -8 17 hhcurveto
          19 15 10 16 6 -2 6 -4 7 hvcurveto
          -167 241 rlineto
          92 29 53 58 99 vvcurveto
          -21 callsubr
          vhcurveto
          -24 callgsubr
          165 314 -11 callsubr
          hintmask 11101100
          -45 callsubr
          endchar
        </CharString>
        <CharString name="S">
          11 1 73 553 73 hstem
          58 73 374 74 vstem
          579 187 rmoveto
          292 -448 -145 186 vvcurveto
          78 97 29 82 97 53 -27 -38 46 vhcurveto
          -6 callgsubr
          66 -46 -105 35 -103 hhcurveto
          -127 -124 -57 -118 hvcurveto
          -277 447 142 -197 vvcurveto
          -95 -83 -24 -96 -86 -108 52 46 -44 vhcurveto
          -7 callsubr
          -68 67 112 -39 104 hhcurveto
          130 116 42 144 hvcurveto
          endchar
        </CharString>
        <CharString name="Scaron">
          30 1 73 493 73 229 17 callsubr
          61 75 383 76 hintmask 11011100
          329 671 -79 callsubr
          hintmask 11101100
          -73 callsubr
          266 -484 rmoveto
          292 -459 -205 186 vvcurveto
          78 99 29 84 100 54 -27 -38 47 vhcurveto
          -3 7 0 -2 6 hhcurveto
          17 30 21 -19 callgsubr
          66 -47 -108 35 -106 hhcurveto
          -130 -127 -57 -118 hvcurveto
          -277 458 202 -197 vvcurveto
          -95 -85 -24 -98 -89 -110 52 46 -46 vhcurveto
          0 callsubr
          -22 -17 -30 -17 2 callsubr
          hvcurveto
          -68 69 115 -39 107 hhcurveto
          133 119 42 144 hvcurveto
          endchar
        </CharString>
        <CharString name="T">
          -45 21 -21 626 74 hstem
          241 74 vstem
          315 28 rmoveto
          598 216 vlineto
          -106 callsubr
          -494 -91 callgsubr
          204 -598 -16 callgsubr
        </CharString>
        <CharString name="Thorn">
          18 21 -21 152 79 286 74 109 -20 hstem
          73 74 387 74 vstem
          312 231 -62 callgsubr
          122 vlineto
          28 -22 3 -13 30 callgsubr
          -645 vlineto
          11 callsubr
        </CharString>
        <CharString name="U">
          86 0 74 626 -70 callgsubr
          endchar
        </CharString>
        <CharString name="Uacute">
          8 callsubr
          171 171 76 -97 callsubr
          -34 700 -94 callgsubr
        </CharString>
        <CharString name="Ucircumflex">
          2 callgsubr
          71 -20 219 -70 callgsubr
          3 876 -105 callsubr
        </CharString>
        <CharString name="Udieresis">
          2 callgsubr
          90 -3 callgsubr
          68 73 18 -36 callsubr
          17 -97 callsubr
          -54 746 rmoveto
          28 vlineto
          32 -32 16 -33 -41 -27 -18 -30 vhcurveto
          -106 callgsubr
        </CharString>
        <CharString name="Ugrave">
          8 callsubr
          75 171 172 -97 callsubr
          41 700 -94 callsubr
        </CharString>
        <CharString name="V">
          1 -10 callsubr
          307 hmoveto
          16 callgsubr
          237 -2 callgsubr
          -8 -6 -9 -5 vhcurveto
          -216 -565 -215 565 8 callgsubr
          1 -4 1 -3 hvcurveto
          235 -618 10 callgsubr
          endchar
        </CharString>
        <CharString name="W">
          221 -10 callsubr
          577 hmoveto
          16 callgsubr
          177 -2 callgsubr
          -10 -5 -10 -3 vhcurveto
          -156 -565 -128 527 rlineto
          35 -8 -12 13 -14 hhcurveto
          -17 -16 -21 -28 -6 hvcurveto
          -119 -526 -155 565 rlineto
          10 -3 -10 5 -11 hhcurveto
          -19 -26 -16 -21 -3 1 -4 1 -3 hvcurveto
          175 -618 10 callgsubr
          16 callgsubr
          111 426 116 -426 10 callgsubr
          endchar
        </CharString>
        <CharString name="X">
          29 -10 callsubr
          548 11 rmoveto
          -8 9 7 -25 callgsubr
          -242 297 244 299 rlineto
          -38 callsubr
          -229 -281 -228 281 rlineto
          -1 callgsubr
          -18 -22 -4 0 -6 4 -3 hvcurveto
          244 -299 -242 -297 -43 callgsubr
          226 277 rlineto
          endchar
        </CharString>
        <CharString name="Y">
          44 -10 callsubr
          47 73 171 74 173 73 vstem
          365 232 rmoveto
          -23 callsubr
          228 -74 callgsubr
          -219 vlineto
          -29 callsubr
          -29 callgsubr
          vhcurveto
          219 -73 callgsubr
          -1 vhcurveto
          -228 -30 callgsubr
          -205 -99 callsubr
          endchar
        </CharString>
        <CharString name="Yacute">
          44 -47 callsubr
          67 203 hstemhm
          47 73 171 74 -74 167 80 73 hintmask 11111010
          365 232 rmoveto
          -23 callsubr
          228 -74 callgsubr
          -219 vlineto
          -29 callsubr
          -29 callgsubr
          vhcurveto
          219 -73 callgsubr
          -1 vhcurveto
          -228 -30 callgsubr
          -205 -99 callsubr
          -78 746 -84 callgsubr
          hintmask 11110110
          -91 callsubr
        </CharString>
        <CharString name="Ydieresis">
          44 -47 callsubr
          90 -3 callgsubr
          47 73 18 133 20 74 23 133 17 73 vstem
          365 232 rmoveto
          -23 callsubr
          228 -74 callgsubr
          -219 vlineto
          -29 callsubr
          -29 callgsubr
          vhcurveto
          219 -73 callgsubr
          -1 vhcurveto
          -228 -30 callgsubr
          -205 -99 callsubr
          -94 792 rmoveto
          28 vlineto
          32 -32 16 -33 -41 -27 -18 -30 vhcurveto
          -106 callgsubr
        </CharString>
        <CharString name="Z">
          27 1 74 551 74 hstem
          68 700 rmoveto
          -93 callgsubr
          409 hlineto
          -450 -575 rlineto
          -5 -6 -2 -6 -6 vvcurveto
          -18 22 -14 32 vhcurveto
          515 -105 callgsubr
          -446 hlineto
          449 572 rlineto
          7 9 4 9 25 callgsubr
        </CharString>
        <CharString name="Zcaron">
          46 1 74 461 74 239 17 callsubr
          hintmask 11010000
          314 651 -79 callsubr
          hintmask 11100000
          -73 callsubr
          -236 -41 rmoveto
          -93 callgsubr
          399 hlineto
          -440 -485 rlineto
          -5 -6 -2 -6 -6 vvcurveto
          -18 22 -14 32 vhcurveto
          515 -105 callgsubr
          -436 hlineto
          439 482 rlineto
          8 8 3 10 25 callgsubr
        </CharString>
        <CharString name="a">
          -50 callsubr
          hstemhm
          38 72 400 89 -73 73 hintmask 10111000
          -98 callsubr
          hintmask 01110100
          -85 callsubr
          endchar
        </CharString>
        <CharString name="aacute">
          -3 callsubr
          154 171 75 -76 callsubr
          -335 552 -94 callgsubr
        </CharString>
        <CharString name="acircumflex">
          -50 callsubr
          0 42 31 callgsubr
          38 72 400 89 -73 73 hintmask 10101110
          -98 callsubr
          hintmask 01011101
          -85 callsubr
          -281 728 -105 callsubr
        </CharString>
        <CharString name="acute">
          -366 22 callsubr
          40 574 -94 callgsubr
        </CharString>
        <CharString name="adieresis">
          -50 callsubr
          60 32 callsubr
          38 72 18 -36 callsubr
          -1 89 -73 73 hintmask 1011110100000000
          -98 callsubr
          hintmask 0111111010000000
          -85 callsubr
          -338 598 rmoveto
          28 vlineto
          32 -32 16 -33 -41 -27 -18 -30 vhcurveto
          -106 callgsubr
        </CharString>
        <CharString name="ae">
          464 -11 74 -50 -21 23 -21 213 74 159 75 -5 -20 hstemhm
          38 72 400 85 -69 69 367 73 hintmask 1001101011000000
          599 70 rmoveto
          -50 49 69 -31 84 hhcurveto
          -82 callgsubr
          -107 -101 62 110 -4 hvcurveto
          -15 51 79 -13 68 -61 callsubr
          -96 -109 -34 -78 -59 hvcurveto
          hintmask 0101011011000000
          62 -39 -67 45 -78 -17 callgsubr
          -169 vlineto
          hintmask 0011101101000000
          -17 10 20 callgsubr
          22 10 18 vhcurveto
          -231 418 rmoveto
          -92 callsubr
          417 -159 -32 callsubr
        </CharString>
        <CharString name="agrave">
          -3 callsubr
          79 171 150 -76 callsubr
          -239 552 -94 callsubr
        </CharString>
        <CharString name="ampersand">
          -48 7 74 546 73 hstemhm
          44 74 -15 72 186 74 hintmask 11011000
          466 155 rmoveto
          14 19 13 21 13 20 rrcurveto
          3 4 1 5 4 vvcurveto
          14 -17 32 -25 -7 -4 -3 -1 -1 vhcurveto
          -37 -61 -126 147 rlineto
          73 39 69 49 99 vvcurveto
          102 -83 55 -83 -83 -83 -55 -92 -54 19 -58 47 -54 vhcurveto
          3 -4 rlineto
          hintmask 11101000
          -68 -39 -60 -50 -96 vvcurveto
          -145 95 -46 98 77 57 37 52 48 vhcurveto
          69 -80 rlineto
          -5 4 6 -2 7 hhcurveto
          20 25 25 15 6 -2 5 -4 5 hvcurveto
          -426 128 rmoveto
          61 49 35 59 32 vhcurveto
          149 -173 rlineto
          -39 -34 -42 -28 -56 hhcurveto
          -63 -62 28 84 hvcurveto
          243 353 rmoveto
          -63 -57 -32 -65 -33 vhcurveto
          -19 23 rlineto
          hintmask 11011000
          -29 34 -16 37 31 vvcurveto
          55 49 29 47 46 44 -27 -54 vhcurveto
          endchar
        </CharString>
        <CharString name="aring">
          -50 callsubr
          40 62 81 63 hstemhm
          38 72 89 64 89 65 93 89 -73 73 hintmask 1011111110000000
          312 550 rmoveto
          63 42 48 54 28 callgsubr
          -55 51 -47 62 hvcurveto
          143 vmoveto
          -9 callgsubr
          56 -253 -102 callsubr
          hintmask 0111111101000000
          -85 callsubr
          endchar
        </CharString>
        <CharString name="asciicircum">
          219 401 -21 320 -20 hstem
          334 700 rmoveto
          -19 -13 -14 -21 -15 hvcurveto
          -165 -238 rlineto
          -3 -4 -1 -3 -4 vvcurveto
          -19 30 -17 17 11 7 7 8 6 vhcurveto
          145 195 146 -195 rlineto
          -8 6 7 -7 11 hhcurveto
          15 32 17 19 4 -1 3 -3 4 hvcurveto
          -167 238 rlineto
          19 -13 -13 16 -20 hhcurveto
          endchar
        </CharString>
        <CharString name="asciitilde">
          103 208 72 33 72 hstem
          54 76 460 76 vstem
          387 232 rmoveto
          -14 25 30 -10 41 hhcurveto
          88 94 62 82 1 hvcurveto
          28 callsubr
          -39 -56 -34 -57 -37 -27 18 22 -28 vhcurveto
          33 -40 -38 32 -70 hhcurveto
          -88 -94 -62 -82 -1 hvcurveto
          -15 callgsubr
          39 56 34 57 59 31 -51 -30 54 vhcurveto
          endchar
        </CharString>
        <CharString name="asterisk">
          -178 321 -21 57 236 57 -20 hstemhm
          61 31 callsubr
          -74 195 hintmask 11101000
          181 622 rmoveto
          -78 vlineto
          -61 41 rlineto
          4 -6 -5 4 -7 hhcurveto
          hintmask 11110000
          -21 -20 -24 -19 -6 2 -6 5 -5 hvcurveto
          85 -58 -86 -58 rlineto
          -6 -4 -1 -6 -6 vvcurveto
          -20 25 -24 18 6 5 3 4 6 vhcurveto
          hintmask 11101000
          61 41 rlineto
          -78 vlineto
          -69 callsubr
          78 vlineto
          61 -41 rlineto
          -1 1 10 -6 5 hhcurveto
          hintmask 11100100
          20 24 25 18 6 -2 6 -5 5 hvcurveto
          -86 58 85 58 rlineto
          6 4 2 7 7 vvcurveto
          20 -23 21 -20 -6 -6 -2 -5 -5 vhcurveto
          hintmask 11110000
          -61 -41 rlineto
          78 vlineto
          17 -14 11 -23 vhcurveto
          hintmask 11101000
          -18 -19 -10 -18 hvcurveto
          endchar
        </CharString>
        <CharString name="at">
          184 -84 71 82 74 241 73 77 74 hstem
          51 72 72 74 256 73 81 73 vstem
          436 384 rmoveto
          20 69 -7 -60 -51 -104 -123 -78 -34 -40 10 59 97 77 75 90 hvcurveto
          14 150 rmoveto
          156 73 -107 -110 -62 -30 -73 -51 -26 hvcurveto
          127 vlineto
          102 -44 72 -109 -131 -119 -117 -128 -98 70 -45 67 66 75 29 84 54 vhcurveto
          -77 vlineto
          -23 19 -6 14 115 77 132 102 180 -127 118 -193 -174 -207 -144 -224 -192 121 -132 173 97 94 49 35 16 -24 19 -13 -8 -7 -2 -6 -5 vhcurveto
          -21 -18 -58 -19 -58 hhcurveto
          -132 -90 89 162 164 156 132 171 hvcurveto
          endchar
        </CharString>
        <CharString name="atilde">
          -50 callsubr
          45 70 3 70 hstemhm
          38 72 5 4 callsubr
          -13 89 -73 73 hintmask 1011111010000000
          -98 callsubr
          hintmask 0111111101000000
          -85 callsubr
          -261 549 -104 callsubr
        </CharString>
        <CharString name="b">
          7 callsubr
          60 74 -74 90 400 72 hintmask 10111010
          134 191 rmoveto
          -141 109 94 -58 103 hhcurveto
          97 85 94 96 183 -170 145 -173 -57 -50 -23 -36 -38 hvcurveto
          273 vlineto
          18 -18 8 -18 -23 -15 -9 -17 vhcurveto
          -696 vlineto
          hintmask 01111010
          -103 callsubr
          158 412 rmoveto
          129 129 -121 -139 hvcurveto
          hintmask 10110110
          -84 -76 -32 -49 -111 -164 194 72 87 113 23 29 vhcurveto
          endchar
        </CharString>
        <CharString name="backslash">
          29 callgsubr
          654 -110 rmoveto
          -7 6 8 -3 9 hhcurveto
          19 20 15 20 11 -5 12 -11 14 hvcurveto
          -606 747 rlineto
          6 -5 -8 3 -7 hhcurveto
          -21 -23 -20 -16 -7 4 -9 7 -9 hvcurveto
          endchar
        </CharString>
        <CharString name="bar">
          -398 -149 -21 920 -20 hstem
          71 74 vstem
          145 -142 rmoveto
          865 -92 callgsubr
          -865 -99 callsubr
          endchar
        </CharString>
        <CharString name="braceleft">
          -290 13 callsubr
          49 72 -72 237 -132 72 cntrmask 11100000
          hintmask 11101000
          49 -15 rmoveto
          -88 122 -54 82 -1 vhcurveto
          23 10 18 18 20 -12 20 -20 hvcurveto
          hintmask 11110100
          -39 -94 16 57 hvcurveto
          80 105 29 101 vvcurveto
          34 -9 24 -16 18 vhcurveto
          16 17 9 25 34 99 -105 30 81 vvcurveto
          57 94 16 39 vhcurveto
          hintmask 11101000
          20 12 20 20 18 -10 18 -23 hvcurveto
          -82 -1 -122 -54 -88 vvcurveto
          hintmask 11111000
          -98 105 -34 -78 vvcurveto
          -44 -22 0 -26 -28 -29 -5 -32 -39 42 0 24 24 15 -6 -38 vhcurveto
          -78 -105 -34 -98 vvcurveto
          endchar
        </CharString>
        <CharString name="braceright">
          -289 13 callsubr
          38 237 -177 72 33 72 cntrmask 11100000
          hintmask 11110000
          275 -15 rmoveto
          hintmask 11101100
          98 -105 34 78 vvcurveto
          38 15 6 24 vhcurveto
          hintmask 11110000
          24 42 0 39 32 -29 5 -28 hvcurveto
          hintmask 11101100
          -26 -22 0 44 hvcurveto
          hintmask 11110000
          78 105 34 98 vvcurveto
          88 -122 54 -82 1 vhcurveto
          -23 -10 -18 -18 -20 12 -20 20 hvcurveto
          hintmask 11101100
          39 94 -16 -57 hvcurveto
          -81 -105 -30 -99 vvcurveto
          -34 9 -25 16 -17 vhcurveto
          -16 -18 -9 -24 -34 -101 105 -29 -80 vvcurveto
          -57 -94 -16 -39 vhcurveto
          hintmask 11110000
          -20 -12 -20 -20 -18 10 -18 23 hvcurveto
          82 32 callgsubr
          54 88 vvcurveto
          endchar
        </CharString>
        <CharString name="bracketleft">
          23 callgsubr
          71 74 -74 198 hintmask 11100000
          241 -97 rmoveto
          -96 773 96 hlineto
          hintmask 11010000
          -106 callsubr
          -128 hlineto
          -32 -10 -6 -21 hvcurveto
          -865 vlineto
          -17 20 -12 15 vhcurveto
          135 -105 callgsubr
          endchar
        </CharString>
        <CharString name="bracketright">
          23 callgsubr
          32 198 -74 74 hintmask 11100000
          60 -97 rmoveto
          -37 callgsubr
          135 hlineto
          15 20 12 17 hvcurveto
          865 vlineto
          21 -10 6 -32 vhcurveto
          -128 hlineto
          -37 callgsubr
          hintmask 11010000
          96 -773 hlineto
          endchar
        </CharString>
        <CharString name="brokenbar">
          -396 -149 -21 920 -20 hstem
          72 74 vstem
          72 722 rmoveto
          -295 vlineto
          -69 callsubr
          295 -58 callsubr
          74 -864 rmoveto
          295 -92 callgsubr
          -295 -99 callsubr
          endchar
        </CharString>
        <CharString name="bullet">
          -205 200 -21 286 -20 hstem
          208 179 rmoveto
          91 56 67 75 88 -78 56 -67 -73 -84 -47 -97 -77 70 -65 85 hvcurveto
          endchar
        </CharString>
        <CharString name="c">
          -59 -15 14 callgsubr
          hintmask 01110000
          -12 callsubr
          -143 132 -120 165 -80 callsubr
          hintmask 10110000
          -51 callsubr
        </CharString>
        <CharString name="ccedilla">
          -59 0 callgsubr
          21 14 callgsubr
          64 15 callsubr
          hintmask 1001011110000000
          -12 callsubr
          -112 81 -98 114 -37 hvcurveto
          -79 -59 callsubr
          23 vlineto
          -1 9 9 -1 10 hhcurveto
          -80 callsubr
          hintmask 1001011110000000
          -51 callsubr
        </CharString>
        <CharString name="cedilla">
          -314 0 callgsubr
          -189 225 hstemhm
          38 15 callsubr
          hintmask 10001100
          95 -78 rmoveto
          hintmask 10001010
          -40 callsubr
          hintmask 01001100
          -47 callgsubr
          hintmask 00101100
          73 -63 24 -27 vhcurveto
          25 vlineto
          hintmask 00011100
          7 -18 4 -18 -18 -18 -4 -7 -2 vhcurveto
          endchar
        </CharString>
        <CharString name="cent">
          -48 -165 -21 204 -21 737 -20 hstem
          34 74 137 74 vstem
          319 -3 rmoveto
          12 hlineto
          -80 callsubr
          -19 callsubr
          -7 382 6 hlineto
          -87 callsubr
          47 -58 -56 15 -53 hhcurveto
          -8 180 hlineto
          -99 callgsubr
          -191 vlineto
          -110 -27 -101 -84 -145 vvcurveto
          -117 88 -102 123 -33 vhcurveto
          -166 -99 callsubr
          -211 417 rmoveto
          64 43 86 94 31 vhcurveto
          -354 vlineto
          -79 31 -58 72 70 vvcurveto
          endchar
        </CharString>
        <CharString name="circumflex">
          -222 572 -21 22 -21 31 callgsubr
          hintmask 01100000
          190 750 -90 callgsubr
          -88 callsubr
          hintmask 10100000
          -97 callgsubr
        </CharString>
        <CharString name="colon">
          -361 0 126 174 22 callgsubr
          350 -58 callgsubr
        </CharString>
        <CharString name="comma">
          -60 callsubr
        </CharString>
        <CharString name="copyright">
          162 94 73 48 74 264 74 51 72 hstem
          52 73 73 74 379 73 vstem
          521 590 rmoveto
          28 -35 -34 9 -31 hhcurveto
          -117 -106 -88 -126 -112 82 -86 143 47 38 18 35 31 hvcurveto
          3 3 1 3 3 vvcurveto
          11 -13 46 -13 -3 -5 -4 -3 -3 vhcurveto
          -35 -31 -33 -3 -22 hhcurveto
          -114 -34 66 59 50 38 89 109 24 24 -4 -22 24 hvcurveto
          -3 3 4 -1 4 hhcurveto
          11 13 43 13 4 -2 4 -3 3 hvcurveto
          -123 -496 -66 callsubr
          endchar
        </CharString>
        <CharString name="currency">
          56 13 73 -62 -21 415 72 -72 88 hstemhm
          82 73 344 73 hintmask 10101100
          334 13 rmoveto
          62 53 21 33 40 hvcurveto
          59 -53 rlineto
          hintmask 01011100
          -8 8 8 -25 callgsubr
          -76 68 rlineto
          23 38 13 45 45 vvcurveto
          50 -16 44 -25 37 vhcurveto
          81 72 rlineto
          -38 callsubr
          -66 -59 rlineto
          hintmask 10101100
          35 -43 -53 20 -48 hhcurveto
          -53 -57 -17 -32 -47 hvcurveto
          -58 53 rlineto
          hintmask 01011100
          -6 callsubr
          69 -62 rlineto
          -28 -37 -18 -47 -57 vvcurveto
          -49 17 -46 29 -39 vhcurveto
          -69 -62 -43 callgsubr
          57 50 rlineto
          hintmask 10101100
          -32 42 54 -19 58 hhcurveto
          2 405 rmoveto
          105 58 -88 -81 -73 -59 -90 -104 -110 -71 77 84 69 49 102 132 hvcurveto
          endchar
        </CharString>
        <CharString name="d">
          7 callsubr
          38 72 400 90 -74 74 hintmask 10111010
          -42 callsubr
          -163 vlineto
          hintmask 01111100
          -18 19 10 callsubr
          696 vlineto
          17 -15 9 -23 vhcurveto
          hintmask 10111010
          -18 -18 -8 -18 hvcurveto
          -158 -284 rmoveto
          hintmask 10111100
          -92 callsubr
          endchar
        </CharString>
        <CharString name="dagger">
          -194 -149 -21 398 74 448 -20 hstemhm
          35 -20 callsubr
          hintmask 11110000
          247 -142 rmoveto
          370 110 vlineto
          hintmask 11100100
          -106 callsubr
          hintmask 11110000
          -110 421 hlineto
          18 -18 9 -18 vhcurveto
          hintmask 11101000
          -23 -15 -10 -17 hvcurveto
          -421 -111 vlineto
          hintmask 11110000
          -93 callgsubr
          111 -370 -16 callgsubr
        </CharString>
        <CharString name="daggerdbl">
          -29 -149 -21 328 74 124 74 320 -20 hstem
          255 74 vstem
          329 -142 rmoveto
          300 190 vlineto
          -106 callsubr
          -190 124 190 -105 callgsubr
          -190 293 hlineto
          -99 callgsubr
          -293 -191 vlineto
          -93 callgsubr
          191 -124 -191 -91 callgsubr
          191 -300 -16 callgsubr
        </CharString>
        <CharString name="degree">
          -64 callsubr
        </CharString>
        <CharString name="dieresis">
          219 570 -3 callgsubr
          144 -36 callsubr
          vstem
          277 620 rmoveto
          28 vlineto
          32 -32 16 -33 -41 -27 -18 -30 vhcurveto
          -106 callgsubr
        </CharString>
        <CharString name="divide">
          -168 0 126 50 74 50 -3 callgsubr
          154 133 cntrmask 11100000
          370 250 rmoveto
          -295 -91 callgsubr
          295 -105 callgsubr
          -83 100 -58 callgsubr
        </CharString>
        <CharString name="dollar">
          2 -57 172 -74 74 214 64 193 73 -73 167 hstemhm
          54 73 153 74 147 74 hintmask 01101111
          354 41 rmoveto
          119 6 102 45 135 vvcurveto
          144 -110 19 -111 3 vhcurveto
          191 vlineto
          67 -7 43 -24 38 -31 rrcurveto
          -6 callgsubr
          -39 55 -80 34 -86 9 rrcurveto
          69 -92 callgsubr
          hintmask 10110111
          -67 vlineto
          -118 -7 -108 -57 -110 vvcurveto
          -140 113 -13 113 -3 vhcurveto
          -211 vlineto
          -77 12 -82 43 -37 39 rrcurveto
          -7 callsubr
          56 -58 89 -37 89 -10 rrcurveto
          -72 -99 callsubr
          hintmask 01110111
          147 262 rmoveto
          -85 -65 -28 -82 -5 vhcurveto
          211 vlineto
          81 -4 66 -14 -75 vvcurveto
          -374 247 rmoveto
          70 78 30 75 6 vhcurveto
          -192 vlineto
          -84 3 -69 10 73 vvcurveto
          endchar
        </CharString>
        <CharString name="e">
          -24 callsubr
          hstem
          480 73 vstem
          -98 callgsubr
          endchar
        </CharString>
        <CharString name="eacute">
          -24 callsubr
          32 -4 callsubr
          251 171 58 73 vstem
          -98 callgsubr
          -52 293 -94 callgsubr
        </CharString>
        <CharString name="ecircumflex">
          -18 -11 74 0 144 74 160 0 74 0 37 31 callgsubr
          480 73 hintmask 01010110
          -87 callgsubr
          hvcurveto
          -146 112 -129 169 68 132 21 77 38 vhcurveto
          -77 callsubr
          hintmask 10101110
          -80 callgsubr
          -6 469 -105 callsubr
        </CharString>
        <CharString name="edieresis">
          -24 callsubr
          55 32 callsubr
          38 205 117 133 -13 73 hintmask 11111010
          -98 callgsubr
          -60 339 rmoveto
          -90 callsubr
          vhcurveto
          hintmask 11111100
          -72 callgsubr
          hvcurveto
          -106 callgsubr
        </CharString>
        <CharString name="egrave">
          -24 callsubr
          32 -4 callsubr
          203 171 106 73 vstem
          -98 callgsubr
          71 293 -94 callsubr
        </CharString>
        <CharString name="eight">
          -35 -1 74 553 75 hstemhm
          50 74 -32 74 247 74 -32 74 hintmask 11100100
          288 -1 rmoveto
          150 91 100 103 81 -57 62 -77 49 hvcurveto
          hintmask 11011000
          47 39 45 54 53 vvcurveto
          83 -69 78 -128 -129 -69 -78 -83 -53 32 -42 60 -51 vhcurveto
          hintmask 11100100
          -80 -51 -54 -60 -81 vvcurveto
          -103 91 -100 147 vhcurveto
          -2 74 rmoveto
          -74 -88 50 70 75 102 76 55 2 hvcurveto
          71 -2 103 -81 -70 vvcurveto
          -70 -88 -50 -81 vhcurveto
          hintmask 11011000
          127 477 rmoveto
          -34 -48 -60 -79 -21 vhcurveto
          -82 21 -38 60 34 vvcurveto
          48 57 28 67 58 65 -28 -48 vhcurveto
          endchar
        </CharString>
        <CharString name="ellipsis">
          89 0 1 callsubr
          92 133 92 133 cntrmask 01110000
          193 50 -89 callgsubr
          225 hmoveto
          -107 callsubr
          225 hmoveto
          -102 callgsubr
        </CharString>
        <CharString name="emdash">
          66 228 74 hstem
          592 302 -34 callsubr
        </CharString>
        <CharString name="endash">
          -68 callsubr
        </CharString>
        <CharString name="equal">
          32 228 74 124 74 hstem
          550 302 rmoveto
          -455 -91 callgsubr
          455 -105 callgsubr
          198 vmoveto
          -455 -91 callgsubr
          455 -105 callgsubr
          endchar
        </CharString>
        <CharString name="eth">
          -113 -5 76 247 83 280 -20 hstem
          37 74 253 94 vstem
          346 674 rmoveto
          -73 -59 -32 28 rlineto
          26 -30 -16 12 -18 hhcurveto
          -32 -12 -24 -15 -13 16 -23 16 -13 hvcurveto
          39 -33 -74 -60 -8 callgsubr
          74 60 44 -46 41 -55 15 -51 rlinecurve
          32 -38 -38 14 -43 hhcurveto
          -103 -98 -83 -117 -103 72 -103 137 144 68 105 146 148 -65 99 -66 71 hvcurveto
          71 58 -9 callsubr
          -97 -603 rmoveto
          -59 -79 42 87 64 57 54 76 63 57 -56 -78 -69 -62 -44 -53 hvcurveto
          endchar
        </CharString>
        <CharString name="exclam">
          -363 0 126 623 -20 hstemhm
          60 133 -104 74 hintmask 11100000
          193 50 -89 callgsubr
          hintmask 11010000
          -30 217 rmoveto
          455 -92 callgsubr
          -455 -99 callsubr
          endchar
        </CharString>
        <CharString name="exclamdown">
          -367 21 -21 510 -20 133 32 callsubr
          58 133 -104 74 hintmask 11110000
          191 699 rmoveto
          32 -34 18 -32 -42 -25 -19 -31 vhcurveto
          -28 vlineto
          -30 27 -18 41 33 32 16 32 vhcurveto
          hintmask 11101000
          -30 -189 rmoveto
          18 -19 9 callsubr
          -455 vlineto
          11 callsubr
        </CharString>
        <CharString name="f">
          -246 22 -21 400 74 79 30 callsubr
          30 136 -74 74 175 74 hintmask 11011010
          166 401 rmoveto
          160 hlineto
          -16 callsubr
          89 -10 callgsubr
          hintmask 11100110
          -46 callsubr
          -49 -74 -139 hvcurveto
          -62 -34 vlineto
          hintmask 11101010
          -5 callgsubr
          34 -373 hlineto
          -69 callsubr
          endchar
        </CharString>
        <CharString name="five">
          -56 0 4 callgsubr
          227 74 152 74 hstemhm
          61 74 -74 87 306 66 hintmask 10111010
          436 626 rmoveto
          18 10 19 18 23 -11 14 -17 hvcurveto
          -329 hlineto
          -22 -24 -7 -20 hvcurveto
          -236 vlineto
          -66 29 -25 31 vhcurveto
          30 36 54 99 hhcurveto
          91 77 -83 -82 -81 -75 -80 -92 hvcurveto
          hintmask 01110110
          -41 -98 -54 callsubr
          137 -46 72 hhcurveto
          139 99 117 118 119 -100 120 -137 hvcurveto
          hintmask 10111010
          -39 -66 -11 -24 -43 hvcurveto
          187 vlineto
          endchar
        </CharString>
        <CharString name="florin">
          -238 -144 76 439 74 109 30 callsubr
          -46 214 -135 135 -74 74 176 74 hintmask 11011001
          19 -70 rmoveto
          -14 -10 2 -8 hhcurveto
          -20 -13 -19 -21 -29 23 -7 39 140 12 105 108 hvcurveto
          302 161 vlineto
          -16 callsubr
          119 -10 callgsubr
          hintmask 11100011
          -46 callsubr
          -50 -74 -139 hvcurveto
          -92 -33 vlineto
          hintmask 11100101
          -5 callgsubr
          hintmask 11100011
          33 -329 hlineto
          -83 -34 -26 -41 -3 vhcurveto
          endchar
        </CharString>
        <CharString name="four">
          -77 21 -21 193 74 433 -20 hstemhm
          346 74 -74 149 hintmask 11110000
          467 267 rmoveto
          -47 379 11 callgsubr
          -324 -425 rlineto
          -8 -7 -4 -12 -12 vvcurveto
          -71 callsubr
          vhcurveto
          294 -165 hlineto
          -103 callsubr
          165 47 vlineto
          hintmask 11101000
          -106 callsubr
          -121 278 rmoveto
          -278 -212 vlineto
          endchar
        </CharString>
        <CharString name="g">
          46 -255 74 -74 154 93 72 376 70 -9 -20 hstemhm
          38 72 48 74 278 90 -74 74 hintmask 1011011010000000
          -42 callsubr
          -203 vlineto
          -118 -89 -51 -85 -56 -64 0 48 vhcurveto
          hintmask 0110111100000000
          20 -19 12 -20 -18 -17 -10 -23 vhcurveto
          -94 1 96 -27 92 hhcurveto
          124 129 18 callsubr
          479 vlineto
          18 -18 9 -18 vhcurveto
          hintmask 1011011010000000
          -23 -15 -10 -17 hvcurveto
          -158 -34 rmoveto
          hintmask 1011011100000000
          -92 callsubr
          endchar
        </CharString>
        <CharString name="germandbls">
          -124 -129 -21 150 72 -72 93 586 72 hstemhm
          60 74 82 102 -3 76 -11 73 hintmask 11011010
          60 -122 rmoveto
          -103 callsubr
          785 vlineto
          8 24 39 8 36 hhcurveto
          43 39 -14 -50 hvcurveto
          hintmask 11011101
          -85 -99 -52 -54 -77 164 -22 -136 vvcurveto
          -68 -46 -49 -60 vhcurveto
          hintmask 10111101
          -23 -13 21 -17 hhcurveto
          -19 -24 -18 -22 -36 61 -17 30 101 83 86 93 hvcurveto
          162 -135 47 52 vvcurveto
          hintmask 11011010
          34 73 34 115 vvcurveto
          96 -77 32 -90 -55 -109 -14 -72 vhcurveto
          endchar
        </CharString>
        <CharString name="grave">
          -310 22 callsubr
          211 574 -94 callsubr
        </CharString>
        <CharString name="greater">
          26 callsubr
          628 303 rmoveto
          14 -14 22 -21 10 vhcurveto
          -478 137 rlineto
          -53 callsubr
          425 -116 -425 -115 -57 callgsubr
          478 135 rlineto
          23 11 12 23 13 vvcurveto
          endchar
        </CharString>
        <CharString name="guillemotleft">
          185 1 callgsubr
          62 358 rmoveto
          -21 -14 -12 -17 -81 callsubr
          2 -247 rmoveto
          -21 -14 -12 -17 -81 callsubr
          endchar
        </CharString>
        <CharString name="guillemotright">
          185 1 callgsubr
          419 605 -85 callgsubr
          -638 247 -85 callgsubr
          endchar
        </CharString>
        <CharString name="guilsinglleft">
          -135 1 callgsubr
          62 358 rmoveto
          -20 -15 -13 -16 -81 callsubr
          endchar
        </CharString>
        <CharString name="guilsinglright">
          -135 1 callgsubr
          99 605 -85 callgsubr
          endchar
        </CharString>
        <CharString name="h">
          59 20 -21 22 -21 431 73 247 -20 hstemhm
          60 74 411 74 hintmask 10111100
          -35 callsubr
          101 41 122 63 93 hhcurveto
          59 96 -35 -105 hvcurveto
          -263 vlineto
          hintmask 01111100
          -46 callgsubr
          77 -123 -99 -100 -42 -70 -66 vhcurveto
          332 vlineto
          -36 callgsubr
          endchar
        </CharString>
        <CharString name="hyphen">
          -68 callsubr
        </CharString>
        <CharString name="i">
          -22 callgsubr
          120 73 26 callgsubr
          445 -92 callgsubr
          -445 -99 callsubr
          600 vmoveto
          18 -92 callgsubr
          -18 -99 callsubr
          endchar
        </CharString>
        <CharString name="iacute">
          -22 callgsubr
          67 203 hstemhm
          60 74 -74 175 hintmask 11110000
          134 28 rmoveto
          445 -92 callgsubr
          -445 -99 callsubr
          -70 546 -84 callgsubr
          hintmask 11101000
          -91 callsubr
        </CharString>
        <CharString name="icircumflex">
          -22 callgsubr
          270 21 callsubr
          445 -92 callgsubr
          -445 -99 callsubr
          -37 722 -105 callsubr
        </CharString>
        <CharString name="idieresis">
          -22 callgsubr
          90 -3 callgsubr
          -94 133 21 74 22 133 vstem
          134 28 rmoveto
          445 -92 callgsubr
          -445 -99 callsubr
          -95 592 rmoveto
          28 vlineto
          32 -32 16 -33 -41 -27 -18 -30 vhcurveto
          -106 callgsubr
        </CharString>
        <CharString name="igrave">
          -22 callgsubr
          67 -4 callsubr
          -38 172 -74 74 vstem
          134 28 rmoveto
          445 -92 callgsubr
          -445 -99 callsubr
          -1 546 -94 callsubr
        </CharString>
        <CharString name="j">
          -249 74 -74 196 553 -20 123 73 hstemhm
          -189 74 175 74 hintmask 10111100
          131 631 rmoveto
          18 -92 callgsubr
          -18 -99 callsubr
          -71 -694 rmoveto
          -90 -40 -22 -45 -38 -52 15 75 vhcurveto
          hintmask 01111100
          20 -18 12 -20 -18 -18 -10 -23 vhcurveto
          -111 2 76 -52 86 hhcurveto
          110 49 74 139 hvcurveto
          509 -92 callgsubr
          endchar
        </CharString>
        <CharString name="k">
          -5 -22 callgsubr
          270 21 callsubr
          183 vlineto
          96 55 314 -254 rlineto
          -8 5 8 -4 9 hhcurveto
          8 10 3 5 8 hvcurveto
          13 8 7 11 10 vvcurveto
          5 -1 4 -3 5 vhcurveto
          -309 255 225 129 rlineto
          6 4 2 7 9 vvcurveto
          19 -12 26 -22 -6 -7 -2 -5 -8 vhcurveto
          -343 -197 rlineto
          427 -92 callgsubr
          -695 -99 callsubr
          endchar
        </CharString>
        <CharString name="l">
          21 -21 750 21 callsubr
          695 -92 callgsubr
          -695 -99 callsubr
          endchar
        </CharString>
        <CharString name="less">
          26 callsubr
          42 303 rmoveto
          -13 12 -23 23 -11 vhcurveto
          478 -135 -56 callgsubr
          -425 115 425 116 -57 callsubr
          -478 -137 rlineto
          -21 -10 -14 -22 -14 vvcurveto
          endchar
        </CharString>
        <CharString name="logicalnot">
          84 170 202 -74 74 hstemhm
          556 74 hintmask 10100000
          630 198 rmoveto
          145 vlineto
          15 -17 14 -13 vhcurveto
          -505 hlineto
          -67 callsubr
          hvcurveto
          hintmask 01100000
          -71 callsubr
          vhcurveto
          461 -100 hlineto
          hintmask 10100000
          -103 callsubr
          endchar
        </CharString>
        <CharString name="m">
          296 17 -21 25 -21 436 74 hstemhm
          59 74 298 73 278 73 hintmask 01111100
          133 471 rmoveto
          -99 callgsubr
          -443 -99 callsubr
          275 vlineto
          67 27 73 66 73 hhcurveto
          64 61 -30 -105 hvcurveto
          -277 vlineto
          hintmask 10111100
          -17 12 20 callgsubr
          20 10 18 vhcurveto
          207 1 -35 103 vvcurveto
          109 101 28 53 64 59 -30 -105 vhcurveto
          -277 vlineto
          -89 callsubr
          18 10 18 vhcurveto
          166 1 72 48 vvcurveto
          127 -78 73 -123 -63 -72 -29 -60 -43 vhcurveto
          57 -33 -56 32 -86 hhcurveto
          -64 -66 -46 -46 -39 hvcurveto
          endchar
        </CharString>
        <CharString name="mu">
          -62 -119 -21 140 73 427 -20 hstem
          73 74 272 74 vstem
          147 4 rmoveto
          -4 23 17 0 24 hhcurveto
          111 52 70 96 45 hvcurveto
          -139 vlineto
          -69 callsubr
          445 -58 callsubr
          -136 vlineto
          -149 -47 -84 -114 -102 hhcurveto
          -15 -12 0 2 -12 hvcurveto
          398 -92 callgsubr
          -585 -99 callsubr
          endchar
        </CharString>
        <CharString name="multiply">
          -202 148 -21 275 17 callsubr
          hintmask 11000000
          76 343 rmoveto
          77 -78 -78 -78 -8 callgsubr
          78 78 78 -78 rlineto
          -5 5 5 -2 6 hhcurveto
          22 22 27 16 6 -2 6 -5 5 hvcurveto
          -79 78 78 78 -9 callsubr
          -78 -78 -78 78 rlineto
          hintmask 10100000
          5 -5 -6 3 -7 hhcurveto
          -15 -26 -19 -24 -6 2 -6 5 -5 hvcurveto
          endchar
        </CharString>
        <CharString name="n">
          14 callsubr
          hstemhm
          60 74 411 74 hintmask 10101100
          -40 callgsubr
          hintmask 01101100
          -35 callgsubr
          hintmask 10011100
          -36 callgsubr
          endchar
        </CharString>
        <CharString name="nine">
          -48 -5 74 198 74 288 74 hstemhm
          45 74 -41 76 245 112 -73 73 hintmask 11110010
          258 -5 rmoveto
          170 83 111 265 192 -80 140 -150 -147 -89 -142 -126 -106 84 -62 93 118 62 78 79 37 hvcurveto
          -18 -1 -22 -26 vvcurveto
          -117 -28 -172 -147 vhcurveto
          hintmask 11101100
          -56 -53 -54 callsubr
          87 -46 92 hhcurveto
          30 634 rmoveto
          76 35 -45 -55 -83 -82 -105 -101 hvcurveto
          hintmask 11110100
          -68 -29 50 45 132 92 61 77 hvcurveto
          endchar
        </CharString>
        <CharString name="ntilde">
          14 callsubr
          75 70 3 70 hstemhm
          60 74 2 4 callsubr
          1 74 hintmask 1010111111000000
          -40 callgsubr
          hintmask 0110111111000000
          -35 callgsubr
          hintmask 1001111111000000
          -36 callgsubr
          299 98 -104 callsubr
        </CharString>
        <CharString name="numbersign">
          97 21 -21 178 74 156 74 221 -20 hstem
          567 252 rmoveto
          -85 hlineto
          52 156 rlineto
          113 -105 callgsubr
          -89 -28 callsubr
          -162 -28 callsubr
          -98 -91 callgsubr
          74 hlineto
          -52 -156 rlineto
          -102 -91 callgsubr
          78 -27 callgsubr
          162 -27 callgsubr
          109 -105 callgsubr
          -273 156 rmoveto
          162 hlineto
          -52 -156 rlineto
          -162 hlineto
          endchar
        </CharString>
        <CharString name="o">
          -18 callsubr
          hstem
          38 74 412 -95 callgsubr
          endchar
        </CharString>
        <CharString name="oacute">
          9 callgsubr
          153 171 88 -95 callgsubr
          -62 133 -94 callgsubr
        </CharString>
        <CharString name="ocircumflex">
          -18 callsubr
          0 37 31 callgsubr
          38 74 412 74 hintmask 11011100
          -101 callgsubr
          -10 309 -90 callgsubr
          hintmask 10111100
          -100 callsubr
        </CharString>
        <CharString name="odieresis">
          -18 callsubr
          55 -3 callgsubr
          38 74 15 -36 callsubr
          14 -95 callgsubr
          -67 179 rmoveto
          28 vlineto
          32 -32 16 -33 -41 -27 -18 -30 vhcurveto
          -106 callgsubr
        </CharString>
        <CharString name="oe">
          322 -11 74 -57 -21 222 74 160 74 hstemhm
          38 74 708 73 hintmask 01111100
          327 -15 rmoveto
          69 54 21 34 41 hvcurveto
          hintmask 10111100
          -32 45 57 -19 66 hhcurveto
          -82 callgsubr
          -82 callsubr
          -68 -74 -17 -37 -58 hvcurveto
          35 -48 -57 19 -53 hhcurveto
          -48 callgsubr
          hvcurveto
          hintmask 01111100
          -49 callgsubr
          vhcurveto
          456 vmoveto
          38 37 -13 -16 28 hvcurveto
          -32 -38 -20 -49 -61 vvcurveto
          -62 20 -59 36 -47 vhcurveto
          -23 -29 -35 -14 -42 hhcurveto
          -64 callgsubr
          316 -160 -32 callsubr
        </CharString>
        <CharString name="ograve">
          9 callgsubr
          91 171 150 -95 callgsubr
          47 133 -94 callsubr
        </CharString>
        <CharString name="one">
          -157 3 callgsubr
          hstemhm
          89 209 -74 74 -74 209 hintmask 11010000
          38 507 rmoveto
          -5 -5 -2 -7 -6 vvcurveto
          -21 23 -21 20 6 6 2 5 5 vhcurveto
          133 114 rlineto
          -494 -108 vlineto
          hintmask 11100000
          -93 callgsubr
          289 hlineto
          hintmask 11001000
          -106 callsubr
          hintmask 11100000
          -107 572 11 callgsubr
          endchar
        </CharString>
        <CharString name="onehalf">
          385 -19 -21 40 74 211 135 -119 74 -26 71 368 -20 hstemhm
          35 31 callsubr
          426 106 -74 74 116 73 hintmask 1110011001100000
          811 727 rmoveto
          7 9 4 9 7 -34 callgsubr
          8 3 7 6 vhcurveto
          502 104 -32 callgsubr
          hintmask 1100111010100000
          -45 callgsubr
          -896 531 -44 callgsubr
          hintmask 1101010110100000
          -75 callsubr
          endchar
        </CharString>
        <CharString name="onequarter">
          321 20 callsubr
          74 413 -20 hstemhm
          35 31 callsubr
          550 74 -74 118 hintmask 1101110100000000
          802 719 rmoveto
          19 28 1 3 2 -34 callgsubr
          9 3 7 5 vhcurveto
          -214 635 -44 callgsubr
          hintmask 1101101100000000
          -75 callsubr
          717 -553 -33 callsubr
          hintmask 1011110100000000
          24 callgsubr
          hintmask 1101110100000000
          23 callsubr
          hintmask 1011110100000000
          79 28 vlineto
          hintmask 1101110010000000
          -13 callgsubr
          endchar
        </CharString>
        <CharString name="onesuperior">
          -273 301 74 347 -20 hstemhm
          38 31 callsubr
          hintmask 11100000
          47 605 -44 callgsubr
          hintmask 11010000
          -75 callsubr
          endchar
        </CharString>
        <CharString name="ordfeminine">
          -161 298 72 171 69 hstemhm
          45 76 178 93 -74 74 hintmask 11110000
          237 541 rmoveto
          18 44 -14 -25 -43 -63 -89 -66 -32 -17 28 35 39 61 69 55 hvcurveto
          156 -66 rmoveto
          68 -67 67 -75 -104 -102 -87 -109 -76 60 -40 66 vhcurveto
          hintmask 11101000
          57 57 30 60 33 hvcurveto
          -70 vlineto
          -11 20 -6 19 18 17 5 12 vhcurveto
          endchar
        </CharString>
        <CharString name="ordmasculine">
          -64 callsubr
        </CharString>
        <CharString name="oslash">
          22 -63 -21 69 74 382 74 84 -20 hstem
          38 74 412 74 vstem
          -62 callsubr
          77 -33 64 -48 46 hvcurveto
          84 102 rlineto
          -38 callgsubr
          -91 -110 rlineto
          22 -41 -45 13 -42 hhcurveto
          -48 callgsubr
          -69 30 -64 49 -48 hvcurveto
          -65 -79 -44 callsubr
          80 97 rlineto
          -23 43 51 -15 55 hhcurveto
          1 74 rmoveto
          -36 -35 9 15 -30 hvcurveto
          243 295 rlineto
          35 -38 19 -48 -43 vvcurveto
          -93 -85 -97 -111 vhcurveto
          -1 382 rmoveto
          31 28 -7 -11 24 hvcurveto
          -243 -296 rlineto
          -34 34 -21 44 42 vvcurveto
          80 66 114 149 vhcurveto
          endchar
        </CharString>
        <CharString name="otilde">
          -18 callsubr
          40 17 callgsubr
          38 74 2 4 callsubr
          2 -95 callgsubr
          10 130 -104 callsubr
        </CharString>
        <CharString name="p">
          5 callsubr
          60 73 408 78 hintmask 11101100
          278 74 rmoveto
          -48 -97 31 92 103 147 135 116 68 77 -28 -100 -140 -150 -93 -113 hvcurveto
          -218 -297 rmoveto
          -69 callsubr
          277 vlineto
          -34 38 50 -21 56 hhcurveto
          173 168 137 183 100 -89 89 -115 -103 -103 -31 -114 -75 hvcurveto
          109 vlineto
          hintmask 11011100
          -5 callsubr
          endchar
        </CharString>
        <CharString name="paragraph">
          54 -139 -21 786 74 hstemhm
          247 74 116 74 -74 198 hintmask 11110000
          247 -133 rmoveto
          -69 callsubr
          759 116 -758 -99 callsubr
          758 96 vlineto
          hintmask 11101000
          -106 callsubr
          -323 hlineto
          -202 -46 -112 -116 -130 84 -74 127 hvcurveto
          endchar
        </CharString>
        <CharString name="parenleft">
          21 callgsubr
          41 73 vstem
          114 300 rmoveto
          199 85 175 160 19 10 19 19 33 -22 2 -19 -204 -102 -222 -221 -222 119 -219 187 31 11 17 17 19 -14 20 -16 -95 -150 98 266 vhcurveto
          endchar
        </CharString>
        <CharString name="parenright">
          21 callgsubr
          306 73 vstem
          306 300 rmoveto
          -266 -150 -98 -95 -16 -14 -20 -19 -17 11 -17 31 187 119 219 222 221 -102 222 -204 -19 -22 -2 -33 -19 10 -19 19 160 85 -175 -199 vhcurveto
          endchar
        </CharString>
        <CharString name="percent">
          326 -26 callsubr
          hintmask 0101111110000000
          -77 callgsubr
          hintmask 1010111110000000
          533 -544 -93 callsubr
          endchar
        </CharString>
        <CharString name="period">
          -361 0 22 callgsubr
          50 rmoveto
          -102 callgsubr
        </CharString>
        <CharString name="periodcentered">
          -361 240 22 callgsubr
          290 rmoveto
          -102 callgsubr
        </CharString>
        <CharString name="perthousand">
          737 -26 callsubr
          74 18 callgsubr
          hintmask 0101111111100000
          -77 callgsubr
          hintmask 1010111111100000
          533 -544 -93 callsubr
          411 -244 -93 callsubr
          endchar
        </CharString>
        <CharString name="plus">
          -175 90 -20 callsubr
          hstemhm
          45 -20 callsubr
          hintmask 10001000
          183 412 rmoveto
          -110 -111 vlineto
          hintmask 01010000
          -93 callgsubr
          hintmask 01001000
          111 -111 hlineto
          hintmask 10010000
          -69 callsubr
          hintmask 01010000
          111 110 vlineto
          hintmask 10000100
          -106 callsubr
          hintmask 10010000
          -110 110 hlineto
          hintmask 00101000
          -5 callsubr
          endchar
        </CharString>
        <CharString name="plusminus">
          -142 -2 74 88 -20 callsubr
          hstemhm
          61 -20 callsubr
          hintmask 11000100
          199 482 rmoveto
          -110 -111 vlineto
          hintmask 10101000
          -93 callgsubr
          hintmask 10100100
          111 -111 hlineto
          hintmask 11001000
          -69 callsubr
          hintmask 10101000
          111 110 vlineto
          hintmask 11000010
          -106 callsubr
          hintmask 11001000
          -110 110 hlineto
          hintmask 10010010
          -5 callsubr
          184 -410 rmoveto
          -295 hlineto
          hintmask 11001000
          -93 callgsubr
          295 hlineto
          hintmask 11000010
          -106 callsubr
          endchar
        </CharString>
        <CharString name="q">
          5 callsubr
          38 78 408 73 hintmask 11101100
          379 74 rmoveto
          -113 -150 93 140 100 77 28 68 116 147 -135 -103 -92 -97 -31 -48 hvcurveto
          218 398 rmoveto
          hintmask 11011100
          18 -19 9 callsubr
          -109 vlineto
          hintmask 11101100
          114 -75 -103 31 -103 hhcurveto
          -115 -89 -89 -100 -183 168 -137 173 56 50 21 34 38 hvcurveto
          -277 vlineto
          11 callsubr
        </CharString>
        <CharString name="question">
          -99 0 126 56 148 -62 62 197 12 callgsubr
          36 76 48 133 -109 77 134 73 hintmask 1011010110000000
          261 268 rmoveto
          62 2 145 53 167 vvcurveto
          -22 callsubr
          hintmask 1100110110000000
          27 callsubr
          -122 -129 -41 -82 -4 vhcurveto
          -120 vlineto
          -18 22 10 callsubr
          hintmask 1011010110000000
          hintmask 1101011010000000
          32 -160 rmoveto
          -102 callgsubr
        </CharString>
        <CharString name="questiondown">
          -99 0 4 callgsubr
          197 62 -62 148 56 32 callsubr
          47 73 102 133 -101 77 72 76 hintmask 0110110110000000
          254 432 rmoveto
          -62 -2 -145 -53 -167 vvcurveto
          -143 138 -67 104 72 117 46 94 1 vhcurveto
          28 callsubr
          vhcurveto
          hintmask 1001110110000000
          -48 -78 -19 -41 -62 -102 45 84 122 129 41 82 4 vhcurveto
          120 vlineto
          18 -22 9 callsubr
          hintmask 1010110110000000
          hintmask 1010111010000000
          -32 160 rmoveto
          -28 vlineto
          -32 32 -16 33 41 27 18 30 vhcurveto
          28 vlineto
          31 -25 19 -42 -32 -34 -18 -32 vhcurveto
          endchar
        </CharString>
        <CharString name="quotedbl">
          -195 467 233 hstem
          47 119 81 -41 callgsubr
          200 hmoveto
          -54 callgsubr
          endchar
        </CharString>
        <CharString name="quotedblbase">
          -171 -101 227 hstemhm
          58 135 55 -75 callgsubr
          190 hmoveto
          -66 callgsubr
        </CharString>
        <CharString name="quotedblleft">
          -172 523 227 hstemhm
          55 96 -96 135 65 96 -96 135 hintmask 10110000
          55 599 rmoveto
          -31 callsubr
          hintmask 10101000
          -48 callsubr
          200 hmoveto
          -31 callsubr
          hintmask 11001000
          -48 callsubr
          endchar
        </CharString>
        <CharString name="quotedblright">
          -179 523 227 hstemhm
          53 135 65 135 vstemhm
          388 674 -88 callgsubr
          -200 hmoveto
          -66 callgsubr
        </CharString>
        <CharString name="quoteleft">
          -372 544 12 callsubr
          55 135 vstemhm
          55 599 rmoveto
          -31 callsubr
          hintmask 11100000
          -48 callsubr
          endchar
        </CharString>
        <CharString name="quoteright">
          -379 544 12 callsubr
          53 135 vstemhm
          188 674 -88 callgsubr
          endchar
        </CharString>
        <CharString name="quotesinglbase">
          -60 callsubr
        </CharString>
        <CharString name="quotesingle">
          -395 467 233 hstem
          47 -41 callgsubr
          endchar
        </CharString>
        <CharString name="r">
          -125 21 -21 439 59 -59 73 hstemhm
          59 74 hintmask 11010000
          133 471 rmoveto
          -99 callgsubr
          -443 -99 callsubr
          148 vlineto
          149 47 84 114 102 hhcurveto
          32 17 -4 -8 34 hvcurveto
          21 2 9 7 24 vvcurveto
          14 -10 15 -19 9 vhcurveto
          hintmask 10110000
          13 -51 -22 1 -36 hhcurveto
          -111 -52 -70 -96 -45 hvcurveto
          endchar
        </CharString>
        <CharString name="registered">
          162 97 73 90 196 -76 76 78 77 70 72 hstemhm
          52 73 111 73 161 74 107 73 hintmask 1011111110000000
          398 97 -66 callsubr
          -91 -301 rmoveto
          22 19 -3 19 hhcurveto
          12 13 0 1 11 hvcurveto
          14 -20 21 -32 37 -53 rrcurveto
          hintmask 1101111110000000
          -9 6 10 -4 8 hhcurveto
          9 50 0 15 2 0 3 -2 2 hvcurveto
          -79 115 rlineto
          40 18 25 30 44 vvcurveto
          59 -44 63 -94 -36 -38 -13 -9 -23 vhcurveto
          9 -1 -12 4 -14 hhcurveto
          -21 -25 -8 -7 hvcurveto
          -314 vlineto
          -9 26 -4 11 9 27 4 9 vhcurveto
          hintmask 1011111110000000
          81 183 rmoveto
          -29 -31 0 7 -21 hvcurveto
          47 vlineto
          14 29 36 10 26 hhcurveto
          69 1 -25 -11 -35 -32 -7 -48 hvcurveto
          endchar
        </CharString>
        <CharString name="s">
          -35 -14 74 375 74 hstem
          45 74 346 74 vstem
          539 133 -84 callsubr
        </CharString>
        <CharString name="scaron">
          -35 -14 74 375 74 240 17 callsubr
          45 74 346 74 hintmask 11011100
          294 551 -79 callsubr
          hintmask 11101100
          -73 callsubr
          245 -418 -84 callsubr
        </CharString>
        <CharString name="section">
          63 -196 77 -77 89 -89 180 626 85 hstemhm
          36 67 103 76 97 73 115 72 hintmask 01011111
          639 45 rmoveto
          295 -357 37 109 vvcurveto
          66 26 58 77 65 59 -40 -37 36 vhcurveto
          -1 1 2 -1 4 hhcurveto
          17 23 30 18 3 -1 2 -1 2 hvcurveto
          68 -45 -125 41 -117 hhcurveto
          -173 -94 -114 -156 -191 342 -52 1 -153 hvcurveto
          -49 -31 -87 -65 -68 -58 58 31 -23 vhcurveto
          hintmask 00111111
          0 callsubr
          -23 -15 -31 -17 hvcurveto
          -85 49 122 -47 124 hhcurveto
          137 118 112 129 hvcurveto
          -536 403 rmoveto
          85 61 87 85 vhcurveto
          -34 -49 -9 -45 -35 -191 361 -19 -227 vvcurveto
          hintmask 10011111
          -70 -61 -103 -114 vhcurveto
          47 54 13 67 30 211 -349 20 185 vvcurveto
          endchar
        </CharString>
        <CharString name="semicolon">
          -358 -80 -21 227 174 0 32 callsubr
          62 133 -96 96 hintmask 10110000
          195 350 -89 callgsubr
          -300 vmoveto
          hintmask 11001000
          -66 callgsubr
        </CharString>
        <CharString name="seven">
          -118 21 -21 626 74 hstem
          470 647 rmoveto
          4 11 3 10 7 vvcurveto
          18 -15 7 -35 vhcurveto
          -373 -91 callgsubr
          329 hlineto
          -211 -575 rlineto
          -2 -5 -1 -5 -5 vvcurveto
          -21 18 -15 19 15 15 9 19 7 vhcurveto
          endchar
        </CharString>
        <CharString name="six">
          -49 -5 74 288 74 99 12 callgsubr
          55 73 -73 112 245 76 -41 74 hintmask 11011001
          308 703 rmoveto
          -170 -83 -111 -265 -192 80 -140 150 147 89 142 126 106 -84 62 -93 -118 -62 -78 -79 -37 hvcurveto
          18 1 22 26 vvcurveto
          117 28 172 147 vhcurveto
          hintmask 11010110
          56 53 -19 -48 -20 20 -12 20 18 18 10 23 hvcurveto
          94 -1 -87 46 -92 hhcurveto
          -30 -634 rmoveto
          -76 -35 45 55 83 82 105 101 hvcurveto
          hintmask 11101001
          68 29 -50 -45 -132 -92 -61 -77 hvcurveto
          endchar
        </CharString>
        <CharString name="slash">
          29 callgsubr
          705 647 rmoveto
          -38 callgsubr
          -606 -747 -44 callsubr
          endchar
        </CharString>
        <CharString name="space">
          -373 endchar
        </CharString>
        <CharString name="sterling">
          -107 -2 70 -70 143 159 74 149 30 callsubr
          49 53 -40 136 -74 74 175 84 -53 53 hintmask 1011010101000000
          124 300 rmoveto
          -166 vlineto
          -43 -15 -32 -35 -43 vvcurveto
          -81 callgsubr
          vhcurveto
          -69 callgsubr
          hintmask 0111010101000000
          -52 callsubr
          vhcurveto
          hintmask 1010101010000000
          -63 callgsubr
          -22 17 -19 17 -31 7 rrcurveto
          163 160 vlineto
          -16 callsubr
          159 -10 callgsubr
          hintmask 1011010110000000
          -46 callsubr
          -49 -74 -139 hvcurveto
          -132 -34 vlineto
          hintmask 1011001010000000
          -5 callgsubr
          endchar
        </CharString>
        <CharString name="t">
          -186 1 74 -74 196 229 74 -74 224 hstemhm
          27 136 -74 74 174 74 hintmask 10101010
          163 426 rmoveto
          160 -11 callgsubr
          -160 123 hlineto
          hintmask 10010110
          -36 callgsubr
          hintmask 10100110
          -123 -34 vlineto
          hintmask 10101010
          -37 callgsubr
          hintmask 01100110
          34 -212 hlineto
          -139 49 -74 110 86 75 52 111 2 vhcurveto
          23 -17 10 -18 -20 -19 -12 -20 vhcurveto
          hintmask 10101010
          -75 -51 -15 -38 -45 -40 22 90 vhcurveto
          endchar
        </CharString>
        <CharString name="thorn">
          44 -231 -21 252 73 361 75 239 -20 hstem
          60 73 408 78 vstem
          278 434 rmoveto
          113 150 -93 -140 -100 -77 -28 -68 -116 -147 135 103 92 97 31 48 hvcurveto
          -218 -658 rmoveto
          -18 19 10 callsubr
          369 vlineto
          -114 75 103 -31 103 hhcurveto
          115 89 89 100 183 -168 137 -173 -56 -50 -21 -34 -38 hvcurveto
          267 vlineto
          -36 callgsubr
          endchar
        </CharString>
        <CharString name="three">
          -73 1 4 callgsubr
          172 90 91 12 callgsubr
          56 76 242 74 -31 73 hintmask 10101110
          251 626 rmoveto
          50 73 -24 -63 -71 -57 -32 -76 -32 -20 -25 -24 -21 16 -20 37 hvcurveto
          hintmask 10110101
          67 108 -23 -111 -72 -51 -65 -115 -41 -78 19 48 hvcurveto
          hintmask 01110101
          -7 callgsubr
          126 118 62 139 115 -68 61 -66 16 hvcurveto
          hintmask 10110110
          40 14 52 61 64 vvcurveto
          109 -104 58 -98 -39 callgsubr
          hintmask 10101110
          48 78 19 41 vhcurveto
          endchar
        </CharString>
        <CharString name="threequarters">
          336 20 callsubr
          69 -69 113 79 84 31 122 -63 63 58 -20 hstemhm
          44 56 24 155 -66 66 -50 72 495 74 -74 118 hintmask 1101011011001100
          819 719 rmoveto
          19 28 1 3 2 -39 callsubr
          hintmask 1100111011010100
          -56 callsubr
          9 3 7 5 vhcurveto
          623 190 -33 callsubr
          hintmask 1011011011100100
          24 callgsubr
          hintmask 1101011011100100
          23 callsubr
          hintmask 1011011011100100
          79 28 vlineto
          hintmask 1101010111100010
          -13 callgsubr
          -576 466 5 callgsubr
          27 callgsubr
          vhcurveto
          hintmask 1101011011001100
          6 callsubr
          -17 callsubr
          hvcurveto
          hintmask 1101011011100100
          -27 callsubr
        </CharString>
        <CharString name="threesuperior">
          -258 301 69 -69 123 69 84 31 122 -63 63 hstemhm
          54 56 24 155 -74 74 -50 72 hintmask 1010110100000000
          118 626 5 callgsubr
          vhcurveto
          hintmask 1011011000000000
          27 callgsubr
          hvcurveto
          hintmask 1011010010000000
          6 callsubr
          hvcurveto
          hintmask 0111010010000000
          -17 callsubr
          vhcurveto
          hintmask 1011011000000000
          -27 callsubr
        </CharString>
        <CharString name="tilde">
          -154 555 17 callgsubr
          19 4 callsubr
          vstem
          242 571 -104 callsubr
        </CharString>
        <CharString name="trademark">
          366 323 -21 323 74 2 -20 hstemhm
          200 75 212 74 271 72 hintmask 10111100
          561 318 rmoveto
          261 vlineto
          102 -140 rlineto
          -14 10 12 -6 11 hhcurveto
          12 9 3 17 12 hvcurveto
          103 140 rlineto
          -261 vlineto
          -10 24 -6 13 10 25 6 10 vhcurveto
          366 vlineto
          9 -31 8 -13 -6 -22 -4 -3 vhcurveto
          -135 -187 -135 187 rlineto
          4 -3 -21 3 -7 hhcurveto
          -13 -31 -7 -10 hvcurveto
          -366 vlineto
          -10 23 -6 14 9 28 6 10 vhcurveto
          -286 hmoveto
          hintmask 11011100
          307 125 vlineto
          10 7 24 13 10 -6 27 -11 hvcurveto
          -328 hlineto
          -10 -5 -26 -11 -12 6 -25 9 hvcurveto
          128 -307 hlineto
          -10 25 -6 12 11 27 6 10 vhcurveto
          endchar
        </CharString>
        <CharString name="two">
          -65 0 74 453 12 callgsubr
          47 87 283 73 hintmask 11011000
          130 74 rmoveto
          68 149 291 78 1 189 rrcurveto
          -22 callsubr
          hintmask 10111000
          27 callsubr
          vhcurveto
          -174 -370 -76 -220 vvcurveto
          -20 24 -7 22 vhcurveto
          379 -105 callgsubr
          endchar
        </CharString>
        <CharString name="twosuperior">
          -208 300 74 211 135 -71 71 hstemhm
          47 106 -74 74 116 73 hintmask 11001100
          152 374 -32 callgsubr
          hintmask 10110100
          -45 callgsubr
          endchar
        </CharString>
        <CharString name="u">
          -30 callsubr
          hstemhm
          54 74 408 74 hintmask 10111000
          -95 callsubr
          hintmask 01111000
          11 callsubr
        </CharString>
        <CharString name="uacute">
          -2 callsubr
          147 171 90 -72 callsubr
          -335 547 -94 callgsubr
        </CharString>
        <CharString name="ucircumflex">
          -30 callsubr
          270 -20 hstemhm
          54 74 408 74 hintmask 10111100
          -95 callsubr
          hintmask 01111100
          -52 callgsubr
          -279 723 -105 callsubr
        </CharString>
        <CharString name="udieresis">
          -30 callsubr
          90 32 callsubr
          54 74 13 -36 callsubr
          12 74 hintmask 10111111
          -95 callsubr
          hintmask 01111111
          -52 callgsubr
          -336 593 rmoveto
          28 vlineto
          32 -32 16 -33 -41 -27 -18 -30 vhcurveto
          -106 callgsubr
        </CharString>
        <CharString name="ugrave">
          -2 callsubr
          74 171 163 -72 callsubr
          -237 547 -94 callsubr
        </CharString>
        <CharString name="underscore">
          80 -202 74 hstem
          599 -128 -34 callsubr
        </CharString>
        <CharString name="uni00AD">
          -68 callsubr
        </CharString>
        <CharString name="v">
          -25 -22 callgsubr
          hstem
          294 hmoveto
          14 17 14 21 10 hvcurveto
          232 418 rlineto
          2 3 0 -1 callsubr
          -8 -6 -9 -5 vhcurveto
          -206 -365 -205 365 8 callgsubr
          0 -4 2 -3 hvcurveto
          232 -418 24 callsubr
        </CharString>
        <CharString name="w">
          225 -22 callgsubr
          hstem
          606 hmoveto
          14 18 13 22 9 hvcurveto
          172 418 rlineto
          2 4 1 3 4 vvcurveto
          19 -28 17 -18 -11 -8 -6 -9 -5 vhcurveto
          -146 -365 -140 330 rlineto
          9 -4 -11 41 -22 hhcurveto
          -22 -4 -23 -27 -11 hvcurveto
          -135 -330 -165 365 rlineto
          9 -5 -8 6 -11 hhcurveto
          -16 -31 -16 -20 -3 1 -4 2 -4 hvcurveto
          192 -418 rlineto
          -23 11 17 -12 13 hhcurveto
          14 18 14 21 9 hvcurveto
          132 296 136 -296 24 callsubr
        </CharString>
        <CharString name="x">
          -1 18 -21 503 -20 hstem
          583 447 rmoveto
          -38 callsubr
          -213 -192 -212 192 rlineto
          -6 callsubr
          222 -200 -222 -199 -43 callgsubr
          212 190 213 -190 rlineto
          -8 8 8 -25 callgsubr
          -222 199 rlineto
          endchar
        </CharString>
        <CharString name="y">
          -31 callgsubr
          hstemhm
          54 72 -41 76 373 74 hintmask 10101101
          -83 callgsubr
          hintmask 01110011
          -74 callsubr
          endchar
        </CharString>
        <CharString name="yacute">
          -31 callgsubr
          65 203 hstemhm
          54 72 -41 76 120 171 82 74 hintmask 1010111011000000
          -83 callgsubr
          hintmask 0111010111000000
          -74 callsubr
          -253 100 -94 callgsubr
        </CharString>
        <CharString name="ydieresis">
          -31 callgsubr
          88 32 callsubr
          54 72 -41 76 -22 -36 callsubr
          12 74 hintmask 1010111011100000
          -83 callgsubr
          hintmask 0111010101100000
          -74 callsubr
          hintmask 1010111011100000
          -262 146 rmoveto
          28 vlineto
          32 -32 16 -33 -41 -27 -18 -30 vhcurveto
          -106 callgsubr
        </CharString>
        <CharString name="yen">
          72 0 152 -74 74 34 74 -74 188 326 -20 hstemhm
          61 73 171 74 173 73 hintmask 10101111
          379 260 rmoveto
          42 vlineto
          -23 callsubr
          158 -74 callgsubr
          -149 vlineto
          hintmask 10011111
          -29 callsubr
          -29 callgsubr
          vhcurveto
          149 -73 callgsubr
          -1 vhcurveto
          -158 -30 callgsubr
          hintmask 10101111
          -43 -190 vlineto
          -93 callgsubr
          190 -34 -190 hlineto
          -67 callsubr
          hvcurveto
          hintmask 01101111
          -71 callsubr
          vhcurveto
          190 -50 hlineto
          hintmask 10101111
          -103 callsubr
          hintmask 01101111
          50 191 vlineto
          -106 callsubr
          -191 34 191 -105 callgsubr
          endchar
        </CharString>
        <CharString name="z">
          -8 0 74 352 74 hstem
          538 500 -70 callsubr
        </CharString>
        <CharString name="zcaron">
          -8 0 74 352 74 249 17 callsubr
          hintmask 11010000
          298 551 -79 callsubr
          hintmask 11100000
          -73 callsubr
          240 -51 -70 callsubr
        </CharString>
        <CharString name="zero">
          -27 -5 74 562 74 hstem
          54 74 331 74 vstem
          54 348 rmoveto
          -212 89 -141 153 vhcurveto
          25 callsubr
          78 138 217 vvcurveto
          190 -77 164 -160 -153 -89 -63 callsubr
          49 140 119 117 46 -139 -143 -152 -46 -128 -117 -118 -50 126 152 vhcurveto
          endchar
        </CharString>
      <CharString index="0">
        505 301 rmoveto
        -139 364 rlineto
        21 -10 -22 14 -14 hhcurveto
        -13 -23 -12 -23 -11 hvcurveto
        -139 -364 rlineto
        -69 -91 callgsubr
        41 hlineto
        -68 -86 callgsubr
        81 212 rlineto
        269 hlineto
        81 -212 rlineto
        -9 5 8 -6 11 hhcurveto
        19 26 16 21 3 -1 4 -1 3 hvcurveto
        -69 180 rlineto
        36 -105 callgsubr
        -250 279 rmoveto
        106 -279 rlineto
        -212 hlineto
        return
      </CharString>
      <CharString index="1">
        -103 callgsubr
        250 hmoveto
        -102 callgsubr
      </CharString>
      <CharString index="2">
        hlineto
        -106 callsubr
        return
      </CharString>
      <CharString index="3">
        48 348 rmoveto
        -212 136 -141 153 vhcurveto
        159 32 callgsubr
        138 217 -100 callgsubr
        return
      </CharString>
      <CharString index="4">
        -28 vlineto
        -31 25 -19 42 32 34 18 32 vhcurveto
        return
      </CharString>
      <CharString index="5">
        -107 callsubr
        endchar
      </CharString>
      <CharString index="6">
        -62 callsubr
        162 -145 104 -124 -48 callgsubr
        -49 callgsubr
        hvcurveto
        456 vmoveto
        124 73 -108 -84 -93 -85 -97 -111 -64 callgsubr
        return
      </CharString>
      <CharString index="7">
        vvcurveto
        190 -121 164 -160 -153 -136 -63 callsubr
        96 140 119 117 90 -139 -143 -152 -90 -128 -117 -118 -97 126 152 vhcurveto
        return
      </CharString>
      <CharString index="8">
        18 -18 9 -18 -23 -15 -10 -17 vhcurveto
        return
      </CharString>
      <CharString index="9">
        -87 callgsubr
        -146 112 -129 169 -82 callgsubr
        -80 callgsubr
        return
      </CharString>
      <CharString index="10">
        -7 7 11 -7 11 hhcurveto
        15 27 16 19 4 0 3 -4 4 hvcurveto
        -117 118 rlineto
        16 -16 -15 19 -15 hhcurveto
        endchar
      </CharString>
      <CharString index="11">
        51 -50 125 -63 -31 -27 -34 -25 -48 39 -9 33 -15 vhcurveto
        -18 39 21 -54 22 hhcurveto
        14 3 17 10 hvcurveto
        endchar
      </CharString>
      <CharString index="12">
        74 vstem
        -101 callgsubr
        return
      </CharString>
      <CharString index="13">
        -84 callgsubr
        -91 callsubr
      </CharString>
      <CharString index="14">
        -67 callsubr
        -71 callsubr
        hvcurveto
        return
      </CharString>
      <CharString index="15">
        vlineto
        -99 callgsubr
        return
      </CharString>
      <CharString index="16">
        hlineto
        -93 callgsubr
        return
      </CharString>
      <CharString index="17">
        rmoveto
        -15 -14 -17 -18 -18 hvcurveto
        -115 -118 rlineto
        -3 -4 -1 -3 -4 vvcurveto
        return
      </CharString>
      <CharString index="18">
        rmoveto
        -107 callsubr
        return
      </CharString>
      <CharString index="19">
        rmoveto
        -76 callgsubr
        hintmask 11100000
        -86 callsubr
        return
      </CharString>
      <CharString index="20">
        325 63 rmoveto
        -82 callsubr
        -141 -168 -73 -178 return
      </CharString>
      <CharString index="21">
        -180 rlineto
        -1 -3 -1 -4 -3 vvcurveto
        -21 26 -16 19 11 8 6 9 5 vhcurveto
        return
      </CharString>
      <CharString index="22">
        rmoveto
        -53 callsubr
        285 -226 -285 -235 -57 callgsubr
        318 255 rlineto
        23 15 10 16 15 vvcurveto
        16 -12 17 -21 14 vhcurveto
        return
      </CharString>
      <CharString index="23">
        rmoveto
        -10 3 -17 14 22 21 54 18 39 vhcurveto
        return
      </CharString>
      <CharString index="24">
        534 234 rmoveto
        -99 -36 -95 -62 -92 hhcurveto
        -59 -126 35 105 hvcurveto
        261 -73 callgsubr
        vhcurveto
        -270 vlineto
        -127 125 -77 123 95 80 39 65 57 vhcurveto
        -116 vlineto
        -118 -122 -51 -82 vhcurveto
        return
      </CharString>
      <CharString index="25">
        68 132 21 77 38 hvcurveto
        -77 callsubr
        return
      </CharString>
      <CharString index="26">
        -16 5 -27 20 14 14 8 14 27 29 24 40 41 22 -36 -21 38 return
      </CharString>
      <CharString index="27">
        -22 218 -42 callgsubr
        67 32 68 60 114 -61 callgsubr
        return
      </CharString>
      <CharString index="28">
        -645 -99 callsubr
        return
      </CharString>
      <CharString index="29">
        466 -105 callgsubr
        -514 hlineto
        -26 0 -31 -18 hvcurveto
        return
      </CharString>
      <CharString index="30">
        628 528 rmoveto
        5 9 3 10 8 vvcurveto
        19 -18 19 -27 -7 -9 -2 -7 -4 vhcurveto
        -247 -509 rlineto
        -9 -16 -7 -10 -11 vvcurveto
        -20 24 -19 19 9 10 2 8 4 vhcurveto
        -164 272 -93 callsubr
        return
      </CharString>
      <CharString index="31">
        60 -55 callsubr
        -41 -29 -23 -35 -30 10 -20 22 -15 vhcurveto
        return
      </CharString>
      <CharString index="32">
        135 vstemhm
        193 50 -88 callgsubr
        return
      </CharString>
      <CharString index="33">
        vlineto
        18 -1 -17 10 -18 hhcurveto
        -25 callsubr
        hvcurveto
        return
      </CharString>
      <CharString index="34">
        -71 callgsubr
        -17 -10 -18 return
      </CharString>
      <CharString index="35">
        -41 -27 -18 -30 return
      </CharString>
      <CharString index="36">
        vlineto
        -65 callsubr
        return
      </CharString>
      <CharString index="37">
        -20 hstem
        68 73 418 -97 callsubr
        return
      </CharString>
      <CharString index="38">
        -9 17 21 -7 29 hhcurveto
        62 55 43 57 1 hvcurveto
        return
      </CharString>
      <CharString index="39">
        -17 14 -11 23 return
      </CharString>
      <CharString index="40">
        16 callsubr
        555 vlineto
        424 -373 rlineto
        -182 -51 callgsubr
        -366 vlineto
        -425 374 rlineto
        12 -13 -16 7 -14 hhcurveto
        -16 -14 -9 -18 hvcurveto
        -79 callgsubr
        return
      </CharString>
      <CharString index="41">
        -76 callgsubr
        -86 callsubr
        endchar
      </CharString>
      <CharString index="42">
        -60 callgsubr
        -169 vlineto
        return
      </CharString>
      <CharString index="43">
        -117 -99 96 92 80 66 114 149 hvcurveto
        return
      </CharString>
      <CharString index="44">
        -27 -29 -24 -40 -26 -19 13 15 -20 vhcurveto
        return
      </CharString>
      <CharString index="45">
        -11 callsubr
        -45 callsubr
        -165 -73 rmoveto
        -1 43 40 -5 38 hhcurveto
        210 130 54 156 -21 callsubr
        hvcurveto
        return
      </CharString>
      <CharString index="46">
        hhcurveto
        104 45 -34 -37 -39 -50 -50 -127 hvcurveto
        return
      </CharString>
      <CharString index="47">
        103 94 58 141 109 hvcurveto
        return
      </CharString>
      <CharString index="48">
        139 182 -83 callsubr
      </CharString>
      <CharString index="49">
        -89 callgsubr
        -300 vmoveto
        -102 callgsubr
      </CharString>
      <CharString index="50">
        rlineto
        -9 -5 -6 -8 -11 vvcurveto
        -19 16 -26 21 3 4 1 1 3 vhcurveto
        return
      </CharString>
      <CharString index="51">
        rlineto
        -1 3 4 -1 3 hhcurveto
        21 16 26 19 11 -6 8 -9 5 hvcurveto
        return
      </CharString>
      <CharString index="52">
        vvcurveto
        16 -23 20 -21 -7 -8 -3 -6 -5 vhcurveto
        return
      </CharString>
      <CharString index="53">
        24 35 85 67 44 -15 37 -44 -46 -14 -37 -24 -28 14 -11 13 -23 hvcurveto
        -43 24 -22 -67 31 hhcurveto
        return
      </CharString>
      <CharString index="54">
        -19 callsubr
        -190 -105 148 143 142 112 -59 callgsubr
      </CharString>
      <CharString index="55">
        -17 15 -10 23 18 18 9 18 vhcurveto
        return
      </CharString>
      <CharString index="56">
        -99 callsubr
        -20 callgsubr
        return
      </CharString>
      <CharString index="57">
        -18 -9 -18 return
      </CharString>
      <CharString index="58">
        -143 130 -120 159 return
      </CharString>
      <CharString index="59">
        -135 -156 -86 -181 return
      </CharString>
      <CharString index="60">
        10 -1 -10 5 -11 hhcurveto
        -16 -18 -10 -20 -31 28 -45 87 46 60 28 64 hvcurveto
        return
      </CharString>
      <CharString index="61">
        -103 callsubr
        166 1 58 48 vvcurveto
        127 -98 return
      </CharString>
      <CharString index="62">
        29 28 15 29 29 30 -16 -35 vhcurveto
        -83 -222 -67 -132 vvcurveto
        -12 14 -4 13 vhcurveto
        258 hlineto
        10 6 23 14 11 -6 26 -10 hvcurveto
        return
      </CharString>
      <CharString index="63">
        rmoveto
        -7 -7 -2 -8 -8 vvcurveto
        -20 17 -21 14 3 3 2 2 3 vhcurveto
        return
      </CharString>
      <CharString index="64">
        rlineto
        -4 -4 -2 -5 -4 vvcurveto
        -18 29 -20 16 9 7 3 8 9 vhcurveto
        return
      </CharString>
      <CharString index="65">
        rmoveto
        -70 -73 14 19 -43 hvcurveto
        return
      </CharString>
      <CharString index="66">
        119 vstem
        107 467 rmoveto
        -54 callgsubr
        return
      </CharString>
      <CharString index="67">
        -35 callsubr
        102 41 122 69 93 hhcurveto
        59 96 -42 -105 hvcurveto
        -263 vlineto
        return
      </CharString>
      <CharString index="68">
        -72 -117 -46 -94 -1 vhcurveto
        -15 callgsubr
        vhcurveto
        return
      </CharString>
      <CharString index="69">
        7 9 4 9 7 -55 callgsubr
        return
      </CharString>
      <CharString index="70">
        -18 -10 -19 -18 -23 11 -14 17 hvcurveto
        return
      </CharString>
      <CharString index="71">
        17 -15 10 -23 -18 -50 callgsubr
        vhcurveto
        return
      </CharString>
      <CharString index="72">
        -46 callgsubr
        84 -123 -99 -100 -46 -71 -66 vhcurveto
        79 vlineto
        return
      </CharString>
      <CharString index="73">
        -39 callsubr
        -11 -14 -5 -12 -11 vvcurveto
        -20 20 -15 19 9 return
      </CharString>
      <CharString index="74">
        rmoveto
        47 -58 -56 15 -53 hhcurveto
        return
      </CharString>
      <CharString index="75">
        rmoveto
        57 83 133 24 113 vvcurveto
        86 -47 40 -98 -43 -75 -28 -56 -35 28 -16 21 14 11 7 13 vhcurveto
        return
      </CharString>
      <CharString index="76">
        54 -255 4 callgsubr
        82 73 428 -20 21 -20 return
      </CharString>
      <CharString index="77">
        vlineto
        -114 126 -81 118 -16 vhcurveto
        return
      </CharString>
      <CharString index="78">
        -61 -144 46 103 return
      </CharString>
      <CharString index="79">
        -21 500 -20 return
      </CharString>
      <CharString index="80">
        hlineto
        -38 -116 rlineto
        -3 -10 -1 -9 -7 vvcurveto
        -21 16 -15 20 13 15 6 13 4 vhcurveto
        52 159 rlineto
        return
      </CharString>
      <CharString index="81">
        28 rmoveto
        -25 39 44 -12 52 hhcurveto
        239 136 176 188 209 -177 147 -194 return
      </CharString>
      <CharString index="82">
        -3 9 hhcurveto
        16 29 20 18 4 -2 5 -4 4 hvcurveto
        return
      </CharString>
      <CharString index="83">
        hintmask 11011100
        37 -21 6 -14 30 callgsubr
        -645 vlineto
        -52 callgsubr
        return
      </CharString>
      <CharString index="84">
        649 -33 callgsubr
        return
      </CharString>
      <CharString index="85">
        21 -28 callgsubr
        return
      </CharString>
      <CharString index="86">
        rlineto
        -56 callsubr
        return
      </CharString>
      <CharString index="87">
        645 -92 callgsubr
        return
      </CharString>
      <CharString index="88">
        16 2 0 1 -1 2 hvcurveto
        return
      </CharString>
      <CharString index="89">
        54 -5 74 562 74 return
      </CharString>
      <CharString index="90">
        hhcurveto
        -78 callsubr
        -60 callgsubr
        return
      </CharString>
      <CharString index="91">
        hlineto
        -103 callsubr
        endchar
      </CharString>
      <CharString index="92">
        -23 18 -10 18 20 20 12 20 return
      </CharString>
      <CharString index="93">
        74 196 74 return
      </CharString>
      <CharString index="94">
        11 5 17 17 19 -6 19 -10 2 hvcurveto
        -102 122 rmoveto
        -122 -112 vlineto
        return
      </CharString>
      <CharString index="95">
        21 -21 262 79 286 74 -1 19 callsubr
        387 74 hintmask 11101100
        return
      </CharString>
      <CharString index="96">
        hlineto
        17 10 15 23 18 -9 18 -18 hvcurveto
        return
      </CharString>
      <CharString index="97">
        hlineto
        90 40 22 45 38 52 -15 -75 vhcurveto
        return
      </CharString>
      <CharString index="98">
        23 17 -24 -17 -19 -20 -21 -20 -26 -23 21 18 17 16 25 33 hvcurveto
        return
      </CharString>
      <CharString index="99">
        rlineto
        -5 -5 -2 -6 -6 vvcurveto
        -21 27 -22 16 6 6 2 5 5 vhcurveto
        return
      </CharString>
      <CharString index="100">
        -49 callsubr
        vhcurveto
        -94 1 117 -46 72 hhcurveto
        return
      </CharString>
      <CharString index="101">
        -3 6 0 -2 6 hhcurveto
        17 29 21 -19 callgsubr
        return
      </CharString>
      <CharString index="102">
        -17 -11 -14 -23 -18 10 -19 18 hvcurveto
        return
      </CharString>
      <CharString index="103">
        58 -43 callsubr
        48 -4 callsubr
        73 74 return
      </CharString>
      <CharString index="104">
        126 hstem
        return
      </CharString>
      <CharString index="105">
        618 rlineto
        1 3 1 -1 callsubr
        return
      </CharString>
      <CharString index="106">
        6 -7 -5 6 -9 hhcurveto
        -19 -28 return
      </CharString>
      <CharString index="107">
        -225 54 -54 106 -106 189 return
      </CharString>
      <CharString index="108">
        29 -21 599 -20 hstem
        return
      </CharString>
      <CharString index="109">
        86 3 callgsubr
        return
      </CharString>
      <CharString index="110">
        0 74 626 -20 return
      </CharString>
      <CharString index="111">
        74 -74 173 return
      </CharString>
      <CharString index="112">
        rmoveto
        28 23 13 24 25 25 -15 -28 -19 -5 -28 -45 return
      </CharString>
      <CharString index="113">
        -61 callgsubr
        endchar
      </CharString>
      <CharString index="114">
        -143 -105 -148 -190 -36 -54 5 54 -50 return
      </CharString>
      <CharString index="115">
        rlineto
        9 -5 -8 6 -11 hhcurveto
        -19 -26 -16 -21 -3 return
      </CharString>
      <CharString index="116">
        -18 callsubr
        32 -4 callsubr
        38 74 return
      </CharString>
      <CharString index="117">
        rlineto
        -23 11 23 -12 13 hhcurveto
        return
      </CharString>
      <CharString index="118">
        hlineto
        38 -15 16 -17 -9 -10 -5 -8 -8 vhcurveto
        return
      </CharString>
      <CharString index="119">
        173 -74 74 hstemhm
        return
      </CharString>
      <CharString index="120">
        -10 -18 vhcurveto
        return
      </CharString>
      <CharString index="121">
        74 -74 148 308 74 hstemhm
        38 74 return
      </CharString>
      <CharString index="122">
        74 -74 148 498 74 hstemhm
        45 75 return
      </CharString>
      <CharString index="123">
        14 22 14 21 10 hvcurveto
        return
      </CharString>
      <CharString index="124">
        70 3 70 hstem
        return
      </CharString>
      <CharString index="125">
        74 188 74 return
      </CharString>
      <CharString index="126">
        -20 219 -20 return
      </CharString>
      <CharString index="127">
        -11 23 18 return
      </CharString>
      <CharString index="128">
        -194 -137 73 738 73 hstem
        return
      </CharString>
      <CharString index="129">
        1 callsubr
        vstem
        193 return
      </CharString>
      <CharString index="130">
        -313 -171 74 773 74 hstemhm
        return
      </CharString>
      <CharString index="131">
        -18 8 -19 18 vhcurveto
        187 -79 hlineto
        return
      </CharString>
      <CharString index="132">
        7 vvcurveto
        21 -19 7 -35 vhcurveto
        endchar
      </CharString>
      <CharString index="133">
        hstem
        60 74 vstem
        134 28 rmoveto
        return
      </CharString>
      <CharString index="134">
        -19 -12 -30 -15 -12 9 -27 22 return
      </CharString>
      <CharString index="135">
        64 -56 40 -49 -52 -61 -35 -69 return
      </CharString>
      <CharString index="136">
        132 -99 -21 828 -20 hstem
        return
      </CharString>
      <CharString index="137">
        -25 callsubr
        vhcurveto
        return
      </CharString>
      <CharString index="138">
        198 -20 hstemhm
        return
      </CharString>
      <CharString index="139">
        1 122 return
      </CharString>
</ttFont>
